<?xml version="1.0" encoding="UTF-8"?>
<svg xmlns="http://www.w3.org/2000/svg" xmlns:xlink="http://www.w3.org/1999/xlink" width="217.43pt" height="68.8pt" viewBox="0 0 217.43 68.8" version="1.2">
<defs>
<clipPath id="clip1">
  <path d="M 0.03125 61 L 216.832031 61 L 216.832031 68.601562 L 0.03125 68.601562 Z M 0.03125 61 "/>
</clipPath>
<clipPath id="clip2">
  <path d="M 23 0 L 216.832031 0 L 216.832031 30 L 23 30 Z M 23 0 "/>
</clipPath>
<clipPath id="clip3">
  <path d="M 94 0 L 210 0 L 210 68.601562 L 94 68.601562 Z M 94 0 "/>
</clipPath>
<clipPath id="clip4">
  <path d="M 35 0 L 123 0 L 123 68.601562 L 35 68.601562 Z M 35 0 "/>
</clipPath>
<clipPath id="clip5">
  <path d="M 0.03125 0 L 64 0 L 64 68.601562 L 0.03125 68.601562 Z M 0.03125 0 "/>
</clipPath>
<clipPath id="clip6">
  <path d="M 0.03125 0 L 137 0 L 137 68.601562 L 0.03125 68.601562 Z M 0.03125 0 "/>
</clipPath>
<clipPath id="clip7">
  <path d="M 108 0 L 216.832031 0 L 216.832031 68.601562 L 108 68.601562 Z M 108 0 "/>
</clipPath>
<clipPath id="clip8">
  <path d="M 181 0 L 216.832031 0 L 216.832031 68.601562 L 181 68.601562 Z M 181 0 "/>
</clipPath>
</defs>
<g id="surface1">
<g clip-path="url(#clip1)" clip-rule="nonzero">
<path style="fill:none;stroke-width:0.99628;stroke-linecap:butt;stroke-linejoin:miter;stroke:rgb(0%,0%,0%);stroke-opacity:1;stroke-miterlimit:10;" d="M -107.719619 0.00000372456 L -107.719619 5.668779 L 107.717336 5.668779 L 107.717336 0.00000372456 Z M -107.719619 0.00000372456 " transform="matrix(0.997101,0,0,-0.997101,108.430826,67.605472)"/>
</g>
<g clip-path="url(#clip2)" clip-rule="nonzero">
<path style="fill:none;stroke-width:0.99628;stroke-linecap:butt;stroke-linejoin:miter;stroke:rgb(0%,0%,0%);stroke-opacity:1;stroke-miterlimit:10;" d="M -70.749177 52.241271 L -71.046915 57.906129 L 98.800866 66.806928 L 99.098604 61.145988 Z M -70.749177 52.241271 " transform="matrix(0.997101,0,0,-0.997101,108.430826,67.605472)"/>
</g>
<g clip-path="url(#clip3)" clip-rule="nonzero">
<path style="fill:none;stroke-width:0.99628;stroke-linecap:butt;stroke-linejoin:miter;stroke:rgb(0%,0%,0%);stroke-opacity:1;stroke-miterlimit:10;" d="M -0.0011419 5.668779 L 87.772807 60.550512 " transform="matrix(0.997101,0,0,-0.997101,108.430826,67.605472)"/>
</g>
<g clip-path="url(#clip4)" clip-rule="nonzero">
<path style="fill:none;stroke-width:0.99628;stroke-linecap:butt;stroke-linejoin:miter;stroke:rgb(0%,0%,0%);stroke-opacity:1;stroke-miterlimit:10;" d="M -0.0011419 5.668779 L -59.427298 52.836747 " transform="matrix(0.997101,0,0,-0.997101,108.430826,67.605472)"/>
</g>
<g clip-path="url(#clip5)" clip-rule="nonzero">
<path style="fill:none;stroke-width:0.99628;stroke-linecap:butt;stroke-linejoin:miter;stroke:rgb(0%,0%,0%);stroke-opacity:1;stroke-miterlimit:10;" d="M -96.378152 5.668779 L -59.427298 52.836747 " transform="matrix(0.997101,0,0,-0.997101,108.430826,67.605472)"/>
</g>
<g clip-path="url(#clip6)" clip-rule="nonzero">
<path style="fill:none;stroke-width:0.99628;stroke-linecap:butt;stroke-linejoin:miter;stroke:rgb(0%,0%,0%);stroke-opacity:1;stroke-miterlimit:10;" d="M -96.378152 5.668779 L 14.172754 56.691671 " transform="matrix(0.997101,0,0,-0.997101,108.430826,67.605472)"/>
</g>
<g clip-path="url(#clip7)" clip-rule="nonzero">
<path style="fill:none;stroke-width:0.99628;stroke-linecap:butt;stroke-linejoin:miter;stroke:rgb(0%,0%,0%);stroke-opacity:1;stroke-miterlimit:10;" d="M 96.379786 5.668779 L 14.172754 56.691671 " transform="matrix(0.997101,0,0,-0.997101,108.430826,67.605472)"/>
</g>
<g clip-path="url(#clip8)" clip-rule="nonzero">
<path style="fill:none;stroke-width:0.99628;stroke-linecap:butt;stroke-linejoin:miter;stroke:rgb(0%,0%,0%);stroke-opacity:1;stroke-miterlimit:10;" d="M 96.379786 5.668779 L 87.772807 60.550512 " transform="matrix(0.997101,0,0,-0.997101,108.430826,67.605472)"/>
</g>
</g>
</svg>
