<?xml version="1.0" encoding="iso-8859-1" standalone="no"?> 
<?xml-stylesheet href="latex-7MMz2c.css" type="text/css"?> 
<svg xmlns="http://www.w3.org/2000/svg" xmlns:xlink="http://www.w3.org/1999/xlink" width="338.90732pt" height="107.16129pt" viewBox="-38.95274 -53.0949 338.90732 107.16129 "> 
<g transform="translate(0, 54.06639 ) scale(1,-1) translate(0,53.0949 )"> 
            <g>
 <g stroke="rgb(0.0%,0.0%,0.0%)">
 <g fill="rgb(0.0%,0.0%,0.0%)">
 <g stroke-width="0.4pt">
 <g>
 </g>
 <g>
 <g>
 <g stroke-width="1.0pt">
 <g>
 <g fill="rgb(100.0%,100.0%,100.0%)">
 <g>
 <g fill="rgb(100.0%,100.0%,100.0%)">
 <path d=" M  10.0 0.0 C  10.0 5.52292 5.52292 10.0 0.0 10.0 C  -5.52292 10.0 -10.0 5.52292 -10.0 0.0 C  -10.0 -5.52292 -5.52292 -10.0 0.0 -10.0 C  5.52292 -10.0 10.0 -5.52292 10.0 0.0 Z M  0.0 0.0  " />
 </g>
 </g>
 <g>
 <g transform="matrix(1.0,0.0,0.0,1.0,-6.2195,-4.1818)">
 <g fill="rgb(0.0%,0.0%,0.0%)">
 <text style="stroke:none" transform="scale(1,-1) translate(6.2195,0)" text-anchor="middle"  font-size="10"> 
<tspan font-family="rm-lmr" font-size="17">+</tspan></text> 
</g>
 </g>
 </g>
 </g>
 </g>
 <g>
 <g>
 <g transform="matrix(1.0,0.0,0.0,1.0,-9.7778,-17.83333)">
 <g fill="rgb(0.0%,0.0%,0.0%)">
 <text style="stroke:none" transform="scale(1,-1) translate(3.8889,0)" text-anchor="middle"  font-size="10"> 
<tspan font-family="lmsy" font-size="10">-</tspan></text> 
</g>
 </g>
 </g>
 </g>
 </g>
 </g>
 <g>
 <g stroke-width="1.0pt">
 <g>
 <g fill="rgb(100.0%,100.0%,100.0%)">
 <g>
 <g fill="rgb(100.0%,100.0%,100.0%)">
 <path d=" M  38.95274 -14.22636 h  34.14322 v  28.45273 h  -34.14322 Z  " />
 </g>
 </g>
 <g>
 <g transform="matrix(1.0,0.0,0.0,1.0,51.4202,-3.41666)">
 <g fill="rgb(0.0%,0.0%,0.0%)">
 <text style="stroke:none" transform="scale(1,-1) translate(4.60416,0)" text-anchor="middle"  font-size="10"> 
<tspan font-family="lmmi" font-size="10">K</tspan></text> 
</g>
 </g>
 </g>
 </g>
 </g>
 </g>
 </g>
 <g>
 <g stroke-width="1.0pt">
 <g>
 <g fill="rgb(100.0%,100.0%,100.0%)">
 <g>
 <g fill="rgb(100.0%,100.0%,100.0%)">
 <path d=" M  122.0487 0.0 C  122.0487 5.52292 117.57162 10.0 112.0487 10.0 C  106.52579 10.0 102.0487 5.52292 102.0487 0.0 C  102.0487 -5.52292 106.52579 -10.0 112.0487 -10.0 C  117.57162 -10.0 122.0487 -5.52292 122.0487 0.0 Z M  112.0487 0.0  " />
 </g>
 </g>
 <g>
 <g transform="matrix(1.0,0.0,0.0,1.0,105.82921,-4.1818)">
 <g fill="rgb(0.0%,0.0%,0.0%)">
 <text style="stroke:none" transform="scale(1,-1) translate(6.2195,0)" text-anchor="middle"  font-size="10"> 
<tspan font-family="rm-lmr" font-size="17">+</tspan></text> 
</g>
 </g>
 </g>
 </g>
 </g>
 </g>
 </g>
 <g>
 <g stroke-width="1.0pt">
 <g>
 <g fill="rgb(100.0%,100.0%,100.0%)">
 <g>
 <g fill="rgb(100.0%,100.0%,100.0%)">
 <path d=" M  151.00145 -14.22636 h  34.14322 v  28.45273 h  -34.14322 Z  " />
 </g>
 </g>
 <g>
 <g transform="matrix(1.0,0.0,0.0,1.0,164.02966,-3.41666)">
 <g fill="rgb(0.0%,0.0%,0.0%)">
 <text style="stroke:none" transform="scale(1,-1) translate(4.0434,0)" text-anchor="middle"  font-size="10"> 
<tspan font-family="lmmi" font-size="10">B</tspan></text> 
</g>
 </g>
 </g>
 </g>
 </g>
 </g>
 </g>
 <g>
 <g stroke-width="1.0pt">
 <g>
 <g fill="rgb(100.0%,100.0%,100.0%)">
 <g>
 <g fill="rgb(100.0%,100.0%,100.0%)">
 <path d=" M  234.09741 0.0 C  234.09741 5.52292 229.62033 10.0 224.09741 10.0 C  218.5745 10.0 214.09741 5.52292 214.09741 0.0 C  214.09741 -5.52292 218.5745 -10.0 224.09741 -10.0 C  229.62033 -10.0 234.09741 -5.52292 234.09741 0.0 Z M  224.09741 0.0  " />
 </g>
 </g>
 <g>
 <g transform="matrix(1.0,0.0,0.0,1.0,217.87791,-4.1818)">
 <g fill="rgb(0.0%,0.0%,0.0%)">
 <text style="stroke:none" transform="scale(1,-1) translate(6.2195,0)" text-anchor="middle"  font-size="10"> 
<tspan font-family="rm-lmr" font-size="17">+</tspan></text> 
</g>
 </g>
 </g>
 </g>
 </g>
 </g>
 </g>
 <g>
 <g stroke-width="1.0pt">
 <g>
 <g fill="rgb(100.0%,100.0%,100.0%)">
 <g>
 <g fill="rgb(100.0%,100.0%,100.0%)">
 <path d=" M  276.6923 42.5949 C  276.6923 48.11781 272.21523 52.5949 266.6923 52.5949 C  261.16939 52.5949 256.6923 48.11781 256.6923 42.5949 C  256.6923 37.07198 261.16939 32.5949 266.6923 32.5949 C  272.21523 32.5949 276.6923 37.07198 276.6923 42.5949 Z M  266.6923 42.5949  " />
 </g>
 </g>
 <g>
 <g transform="matrix(1.0,0.0,0.0,1.0,260.47281,38.4131)">
 <g fill="rgb(0.0%,0.0%,0.0%)">
 <text style="stroke:none" transform="scale(1,-1) translate(6.2195,0)" text-anchor="middle"  font-size="10"> 
<tspan font-family="rm-lmr" font-size="17">+</tspan></text> 
</g>
 </g>
 </g>
 </g>
 </g>
 <g>
 <g>
 <g transform="matrix(1.0,0.0,0.0,1.0,256.9145,24.76157)">
 <g fill="rgb(0.0%,0.0%,0.0%)">
 <text style="stroke:none" transform="scale(1,-1) translate(3.8889,0)" text-anchor="middle"  font-size="10"> 
<tspan font-family="lmsy" font-size="10">-</tspan></text> 
</g>
 </g>
 </g>
 </g>
 </g>
 </g>
 <g>
 <g stroke-width="1.0pt">
 <g>
 <g fill="rgb(100.0%,100.0%,100.0%)">
 <g>
 <g fill="rgb(100.0%,100.0%,100.0%)">
 <path d=" M  276.6923 -42.5949 C  276.6923 -37.07198 272.21523 -32.5949 266.6923 -32.5949 C  261.16939 -32.5949 256.6923 -37.07198 256.6923 -42.5949 C  256.6923 -48.11781 261.16939 -52.5949 266.6923 -52.5949 C  272.21523 -52.5949 276.6923 -48.11781 276.6923 -42.5949 Z M  266.6923 -42.5949  " />
 </g>
 </g>
 <g>
 <g transform="matrix(1.0,0.0,0.0,1.0,260.47281,-46.77669)">
 <g fill="rgb(0.0%,0.0%,0.0%)">
 <text style="stroke:none" transform="scale(1,-1) translate(6.2195,0)" text-anchor="middle"  font-size="10"> 
<tspan font-family="rm-lmr" font-size="17">+</tspan></text> 
</g>
 </g>
 </g>
 </g>
 </g>
 </g>
 </g>
 <g>
 <g stroke-width="1.0pt">
 <path d=" M  10.0 0.0 L  33.80183 0.0  " style="fill:none"/>
 <g>
 <g transform="matrix(1.0,0.0,0.0,1.0,30.95274,0.0)">
 <g>
 <g stroke-dasharray="none" stroke-dashoffset="0.0pt">
 <g stroke-linejoin="miter">
 <path d=" M  6.07602 0.0 L  1.61476 1.68935 L  3.09909 0.0 L  1.61476 -1.68935 Z  " />
 </g>
 </g>
 </g>
  </g>
 </g>
 <g>
 <g>
 <g transform="matrix(1.0,0.0,0.0,1.0,22.96461,5.33295)">
 <g fill="rgb(0.0%,0.0%,0.0%)">
 <text style="stroke:none" transform="scale(1,-1) translate(5.82758,0)" text-anchor="middle"  font-size="10"> 
<tspan font-family="lmmi" font-size="10">&#x03F5;</tspan><tspan baseline-shift="sub"><tspan font-family="lmmi" font-size="7">m</tspan> </tspan></text> 
</g>
 </g>
 </g>
 </g>
 </g>
 </g>
 <g>
 <g stroke-width="1.0pt">
 <path d=" M  73.59596 0.0 L  97.3978 0.0  " style="fill:none"/>
 <g>
 <g transform="matrix(1.0,0.0,0.0,1.0,94.5487,0.0)">
 <g>
 <g stroke-dasharray="none" stroke-dashoffset="0.0pt">
 <g stroke-linejoin="miter">
 <path d=" M  6.07602 0.0 L  1.61476 1.68935 L  3.09909 0.0 L  1.61476 -1.68935 Z  " />
 </g>
 </g>
 </g>
  </g>
 </g>
 </g>
 </g>
 <g>
 <g stroke-width="1.0pt">
 <path d=" M  122.0487 0.0 L  145.85054 0.0  " style="fill:none"/>
 <g>
 <g transform="matrix(1.0,0.0,0.0,1.0,143.00145,0.0)">
 <g>
 <g stroke-dasharray="none" stroke-dashoffset="0.0pt">
 <g stroke-linejoin="miter">
 <path d=" M  6.07602 0.0 L  1.61476 1.68935 L  3.09909 0.0 L  1.61476 -1.68935 Z  " />
 </g>
 </g>
 </g>
  </g>
 </g>
 <g>
 <g>
 <g transform="matrix(1.0,0.0,0.0,1.0,140.9439,3.83298)">
 <g fill="rgb(0.0%,0.0%,0.0%)">
 <text style="stroke:none" transform="scale(1,-1) translate(2.86229,0)" text-anchor="middle"  font-size="10"> 
<tspan font-family="lmmi" font-size="10">u</tspan></text> 
</g>
 </g>
 </g>
 </g>
 </g>
 </g>
 <g>
 <g stroke-width="1.0pt">
 <path d=" M  276.6923 42.5949 L  294.80367 42.5949  " style="fill:none"/>
 <g>
 <g transform="matrix(1.0,0.0,0.0,1.0,291.95457,42.5949)">
 <g>
 <g stroke-dasharray="none" stroke-dashoffset="0.0pt">
 <g stroke-linejoin="miter">
 <path d=" M  6.07602 0.0 L  1.61476 1.68935 L  3.09909 0.0 L  1.61476 -1.68935 Z  " />
 </g>
 </g>
 </g>
  </g>
 </g>
 <g>
 </g>
 <g>
 <g>
 <g transform="matrix(1.0,0.0,0.0,1.0,291.56258,46.42787)">
 <g fill="rgb(0.0%,0.0%,0.0%)">
 <text style="stroke:none" transform="scale(1,-1) translate(2.02951,0)" text-anchor="middle"  font-size="10"> 
<tspan font-family="lmmi" font-size="10">&#x03F5;</tspan></text> 
</g>
 </g>
 </g>
 </g>
 </g>
 </g>
 <g>
 <g stroke-width="1.0pt">
 <path d=" M  185.64467 0.0 L  209.4465 0.0  " style="fill:none"/>
 <g>
 <g transform="matrix(1.0,0.0,0.0,1.0,206.59741,0.0)">
 <g>
 <g stroke-dasharray="none" stroke-dashoffset="0.0pt">
 <g stroke-linejoin="miter">
 <path d=" M  6.07602 0.0 L  1.61476 1.68935 L  3.09909 0.0 L  1.61476 -1.68935 Z  " />
 </g>
 </g>
 </g>
  </g>
 </g>
 </g>
 </g>
 <g>
 <g stroke-width="1.0pt">
 <path d=" M  234.09741 0.0 L  294.80367 0.0  " style="fill:none"/>
 <g>
 <g transform="matrix(1.0,0.0,0.0,1.0,291.95457,0.0)">
 <g>
 <g stroke-dasharray="none" stroke-dashoffset="0.0pt">
 <g stroke-linejoin="miter">
 <path d=" M  6.07602 0.0 L  1.61476 1.68935 L  3.09909 0.0 L  1.61476 -1.68935 Z  " />
 </g>
 </g>
 </g>
  </g>
 </g>
 <g>
 <g>
 <g transform="matrix(1.0,0.0,0.0,1.0,290.36,5.7774)">
 <g fill="rgb(0.0%,0.0%,0.0%)">
 <text style="stroke:none" transform="scale(1,-1) translate(2.6308,0)" text-anchor="middle"  font-size="10"> 
<tspan font-family="lmmi" font-size="10">y</tspan></text> 
</g>
 </g>
 </g>
 </g>
 </g>
 </g>
 <g>
 <g stroke-width="1.0pt">
 <path d=" M  -14.65091 0.0 L  -38.45274 0.0  " style="fill:none"/>
 <g>
 <g transform="matrix(1.0,0.0,0.0,1.0,-17.5,0.0)">
 <g>
 <g stroke-dasharray="none" stroke-dashoffset="0.0pt">
 <g stroke-linejoin="miter">
 <path d=" M  6.07602 0.0 L  1.61476 1.68935 L  3.09909 0.0 L  1.61476 -1.68935 Z  " />
 </g>
 </g>
 </g>
  </g>
 </g>
 <g>
 <g>
 <g transform="matrix(1.0,0.0,0.0,1.0,-34.61977,3.83298)">
 <g fill="rgb(0.0%,0.0%,0.0%)">
 <text style="stroke:none" transform="scale(1,-1) translate(2.39468,0)" text-anchor="middle"  font-size="10"> 
<tspan font-family="lmmi" font-size="10">r</tspan></text> 
</g>
 </g>
 </g>
 </g>
 </g>
 </g>
 <g>
 <g stroke-width="1.0pt">
 <path d=" M  266.6923 0.0 L  266.6923 -27.94398  " style="fill:none"/>
 <g>
 <g transform="matrix(0.0,-1.0,1.0,0.0,266.6923,-25.0949)">
 <g>
 <g stroke-dasharray="none" stroke-dashoffset="0.0pt">
 <g stroke-linejoin="miter">
 <path d=" M  6.07602 0.0 L  1.61476 1.68935 L  3.09909 0.0 L  1.61476 -1.68935 Z  " />
 </g>
 </g>
 </g>
  </g>
 </g>
 <g>
 <path d=" M  268.6923 0.0 C  268.6923 1.10458 267.79689 2.0 266.6923 2.0 C  265.58772 2.0 264.6923 1.10458 264.6923 0.0 C  264.6923 -1.10458 265.58772 -2.0 266.6923 -2.0 C  267.79689 -2.0 268.6923 -1.10458 268.6923 0.0 Z M  266.6923 0.0  " style="stroke:none"/>
 <g>
 <g transform="matrix(1.0,0.0,0.0,1.0,266.6923,0.0)">
 <g fill="rgb(0.0%,0.0%,0.0%)">
 <text style="stroke:none" transform="scale(1,-1) translate(0.0,0)" text-anchor="middle"  font-size="10"> 
</text> 
</g>
 </g>
 </g>
 </g>
 </g>
 </g>
 <g>
 <g stroke-width="1.0pt">
 <path d=" M  281.34322 -42.5949 L  299.45457 -42.5949  " style="fill:none"/>
 <g>
 <g transform="matrix(-1.0,0.0,0.0,-1.0,284.1923,-42.5949)">
 <g>
 <g stroke-dasharray="none" stroke-dashoffset="0.0pt">
 <g stroke-linejoin="miter">
 <path d=" M  6.07602 0.0 L  1.61476 1.68935 L  3.09909 0.0 L  1.61476 -1.68935 Z  " />
 </g>
 </g>
 </g>
  </g>
 </g>
 <g>
 <g>
 <g transform="matrix(1.0,0.0,0.0,1.0,289.61925,-38.76192)">
 <g fill="rgb(0.0%,0.0%,0.0%)">
 <text style="stroke:none" transform="scale(1,-1) translate(3.00117,0)" text-anchor="middle"  font-size="10"> 
<tspan font-family="lmmi" font-size="10">n</tspan></text> 
</g>
 </g>
 </g>
 </g>
 </g>
 </g>
 <g>
 <g stroke-width="1.0pt">
 <path d=" M  266.6923 0.0 L  266.6923 27.94398  " style="fill:none"/>
 <g>
 <g transform="matrix(0.0,1.0,-1.0,0.0,266.6923,25.0949)">
 <g>
 <g stroke-dasharray="none" stroke-dashoffset="0.0pt">
 <g stroke-linejoin="miter">
 <path d=" M  6.07602 0.0 L  1.61476 1.68935 L  3.09909 0.0 L  1.61476 -1.68935 Z  " />
 </g>
 </g>
 </g>
  </g>
 </g>
 </g>
 </g>
 <g>
 <g stroke-width="1.0pt">
 <path d=" M  -18.5359 0.0 L  -18.5359 42.5949 L  252.0414 42.5949  " style="fill:none"/>
 <g>
 <g transform="matrix(1.0,0.0,0.0,1.0,249.1923,42.5949)">
 <g>
 <g stroke-dasharray="none" stroke-dashoffset="0.0pt">
 <g stroke-linejoin="miter">
 <path d=" M  6.07602 0.0 L  1.61476 1.68935 L  3.09909 0.0 L  1.61476 -1.68935 Z  " />
 </g>
 </g>
 </g>
  </g>
 </g>
 <g>
 <path d=" M  -16.5359 0.0 C  -16.5359 1.10458 -17.43132 2.0 -18.5359 2.0 C  -19.64049 2.0 -20.5359 1.10458 -20.5359 0.0 C  -20.5359 -1.10458 -19.64049 -2.0 -18.5359 -2.0 C  -17.43132 -2.0 -16.5359 -1.10458 -16.5359 0.0 Z M  -18.5359 0.0  " style="stroke:none"/>
 <g>
 <g transform="matrix(1.0,0.0,0.0,1.0,-18.5359,0.0)">
 <g fill="rgb(0.0%,0.0%,0.0%)">
 <text style="stroke:none" transform="scale(1,-1) translate(0.0,0)" text-anchor="middle"  font-size="10"> 
</text> 
</g>
 </g>
 </g>
 </g>
 </g>
 </g>
 <g>
 <g stroke-width="1.0pt">
 <path d=" M  256.6923 -42.5949 L  0.0 -42.5949 L  0.0 -14.65091  " style="fill:none"/>
 <g>
 <g transform="matrix(0.0,1.0,-1.0,0.0,0.0,-17.5)">
 <g>
 <g stroke-dasharray="none" stroke-dashoffset="0.0pt">
 <g stroke-linejoin="miter">
 <path d=" M  6.07602 0.0 L  1.61476 1.68935 L  3.09909 0.0 L  1.61476 -1.68935 Z  " />
 </g>
 </g>
 </g>
  </g>
 </g>
 <g>
 <g>
 <g transform="matrix(1.0,0.0,0.0,1.0,3.83298,-18.13852)">
 <g fill="rgb(0.0%,0.0%,0.0%)">
 <text style="stroke:none" transform="scale(1,-1) translate(6.42885,0)" text-anchor="middle"  font-size="10"> 
<tspan font-family="lmmi" font-size="10">y</tspan><tspan baseline-shift="sub"><tspan font-family="lmmi" font-size="7">m</tspan></tspan></text> 
</g>
 </g>
 </g>
 </g>
 </g>
 </g>
 <g>
 <g stroke-width="1.0pt">
 <path d=" M  112.0487 14.65091 L  112.0487 32.76227  " style="fill:none"/>
 <g>
 <g transform="matrix(0.0,-1.0,1.0,0.0,112.0487,17.5)">
 <g>
 <g stroke-dasharray="none" stroke-dashoffset="0.0pt">
 <g stroke-linejoin="miter">
 <path d=" M  6.07602 0.0 L  1.61476 1.68935 L  3.09909 0.0 L  1.61476 -1.68935 Z  " />
 </g>
 </g>
 </g>
  </g>
 </g>
 <g>
 <g>
 <g transform="matrix(1.0,0.0,0.0,1.0,115.88168,21.98485)">
 <g fill="rgb(0.0%,0.0%,0.0%)">
 <text style="stroke:none" transform="scale(1,-1) translate(5.21646,0)" text-anchor="middle"  font-size="10"> 
<tspan font-family="lmmi" font-size="10">d</tspan><tspan baseline-shift="sub"><tspan font-family="lmmi" font-size="7">u</tspan> </tspan></text> 
</g>
 </g>
 </g>
 </g>
 </g>
 </g>
 <g>
 <g stroke-width="1.0pt">
 <path d=" M  224.09741 14.65091 L  224.09741 32.76227  " style="fill:none"/>
 <g>
 <g transform="matrix(0.0,-1.0,1.0,0.0,224.09741,17.5)">
 <g>
 <g stroke-dasharray="none" stroke-dashoffset="0.0pt">
 <g stroke-linejoin="miter">
 <path d=" M  6.07602 0.0 L  1.61476 1.68935 L  3.09909 0.0 L  1.61476 -1.68935 Z  " />
 </g>
 </g>
 </g>
  </g>
 </g>
 <g>
 <g>
 <g transform="matrix(1.0,0.0,0.0,1.0,227.93039,21.98486)">
 <g fill="rgb(0.0%,0.0%,0.0%)">
 <text style="stroke:none" transform="scale(1,-1) translate(5.0058,0)" text-anchor="middle"  font-size="10"> 
<tspan font-family="lmmi" font-size="10">d</tspan><tspan baseline-shift="sub"><tspan font-family="lmmi" font-size="7">y</tspan> </tspan></text> 
</g>
 </g>
 </g>
 </g>
 </g>
 </g>
 </g>
 </g>
 </g>
 </g>
 </g>
 
                                                                                                        </g> 
</svg> 
