<?xml version="1.0" encoding="iso-8859-1" standalone="no"?> 
<?xml-stylesheet href="latex-HmuaDm.css" type="text/css"?> 
<svg xmlns="http://www.w3.org/2000/svg" xmlns:xlink="http://www.w3.org/1999/xlink" width="345.59778pt" height="214.05641pt" viewBox="-38.95274 -159.99002 345.59778 214.05641 "> 
<g transform="translate(0, 54.06639 ) scale(1,-1) translate(0,159.99002 )"> 
            <g>
 <g stroke="rgb(0.0%,0.0%,0.0%)">
 <g fill="rgb(0.0%,0.0%,0.0%)">
 <g stroke-width="0.4pt">
 <g>
 </g>
 <g>
 <g>
 <g stroke-width="1.0pt">
 <g>
 <g fill="rgb(100.0%,100.0%,100.0%)">
 <g>
 <g fill="rgb(100.0%,100.0%,100.0%)">
 <path d=" M  10.0 0.0 C  10.0 5.52292 5.52292 10.0 0.0 10.0 C  -5.52292 10.0 -10.0 5.52292 -10.0 0.0 C  -10.0 -5.52292 -5.52292 -10.0 0.0 -10.0 C  5.52292 -10.0 10.0 -5.52292 10.0 0.0 Z M  0.0 0.0  " />
 </g>
 </g>
 <g>
 <g transform="matrix(1.0,0.0,0.0,1.0,-6.2195,-4.1818)">
 <g fill="rgb(0.0%,0.0%,0.0%)">
 <text style="stroke:none" transform="scale(1,-1) translate(6.2195,0)" text-anchor="middle"  font-size="10"> 
<tspan font-family="rm-lmr" font-size="17">+</tspan></text> 
</g>
 </g>
 </g>
 </g>
 </g>
 <g>
 <g>
 <g transform="matrix(1.0,0.0,0.0,1.0,-9.7778,-17.83333)">
 <g fill="rgb(0.0%,0.0%,0.0%)">
 <text style="stroke:none" transform="scale(1,-1) translate(3.8889,0)" text-anchor="middle"  font-size="10"> 
<tspan font-family="lmsy" font-size="10">-</tspan></text> 
</g>
 </g>
 </g>
 </g>
 </g>
 </g>
 <g>
 <g stroke-width="1.0pt">
 <g>
 <g fill="rgb(100.0%,100.0%,100.0%)">
 <g>
 <g fill="rgb(100.0%,100.0%,100.0%)">
 <path d=" M  38.95274 -14.22636 h  34.14322 v  28.45273 h  -34.14322 Z  " />
 </g>
 </g>
 <g>
 <g transform="matrix(1.0,0.0,0.0,1.0,51.4202,-3.41666)">
 <g fill="rgb(0.0%,0.0%,0.0%)">
 <text style="stroke:none" transform="scale(1,-1) translate(4.60416,0)" text-anchor="middle"  font-size="10"> 
<tspan font-family="lmmi" font-size="10">K</tspan></text> 
</g>
 </g>
 </g>
 </g>
 </g>
 </g>
 </g>
 <g>
 <g stroke-width="1.0pt">
 <g>
 <g fill="rgb(100.0%,100.0%,100.0%)">
 <g>
 <g fill="rgb(100.0%,100.0%,100.0%)">
 <path d=" M  122.0487 0.0 C  122.0487 5.52292 117.57162 10.0 112.0487 10.0 C  106.52579 10.0 102.0487 5.52292 102.0487 0.0 C  102.0487 -5.52292 106.52579 -10.0 112.0487 -10.0 C  117.57162 -10.0 122.0487 -5.52292 122.0487 0.0 Z M  112.0487 0.0  " />
 </g>
 </g>
 <g>
 <g transform="matrix(1.0,0.0,0.0,1.0,105.82921,-4.1818)">
 <g fill="rgb(0.0%,0.0%,0.0%)">
 <text style="stroke:none" transform="scale(1,-1) translate(6.2195,0)" text-anchor="middle"  font-size="10"> 
<tspan font-family="rm-lmr" font-size="17">+</tspan></text> 
</g>
 </g>
 </g>
 </g>
 </g>
 </g>
 </g>
 <g>
 <g stroke-width="1.0pt">
 <g>
 <g fill="rgb(100.0%,100.0%,100.0%)">
 <g>
 <g fill="rgb(100.0%,100.0%,100.0%)">
 <path d=" M  151.00145 -14.22636 h  34.14322 v  28.45273 h  -34.14322 Z  " />
 </g>
 </g>
 <g>
 <g transform="matrix(1.0,0.0,0.0,1.0,164.14182,-3.41666)">
 <g fill="rgb(0.0%,0.0%,0.0%)">
 <text style="stroke:none" transform="scale(1,-1) translate(3.93124,0)" text-anchor="middle"  font-size="10"> 
<tspan font-family="lmmi" font-size="10">G</tspan></text> 
</g>
 </g>
 </g>
 </g>
 </g>
 </g>
 </g>
 <g>
 <g stroke-width="1.0pt">
 <g>
 <g fill="rgb(100.0%,100.0%,100.0%)">
 <g>
 <g fill="rgb(100.0%,100.0%,100.0%)">
 <path d=" M  151.00145 -57.90546 h  34.14322 v  28.45273 h  -34.14322 Z  " />
 </g>
 </g>
 <g>
 <g transform="matrix(1.0,0.0,0.0,1.0,162.10495,-46.34576)">
 <g fill="rgb(0.0%,0.0%,0.0%)">
 <text style="stroke:none" transform="scale(1,-1) translate(5.96811,0)" text-anchor="middle"  font-size="10"> 
<tspan font-family="lmmi" font-size="10">G</tspan><tspan baseline-shift="sub"><tspan font-family="lmmi" font-size="7">c</tspan> </tspan></text> 
</g>
 </g>
 </g>
 </g>
 </g>
 </g>
 </g>
 <g>
 <g stroke-width="1.0pt">
 <g>
 <g fill="rgb(100.0%,100.0%,100.0%)">
 <g>
 <g fill="rgb(100.0%,100.0%,100.0%)">
 <path d=" M  219.87103 0.0 C  219.87103 5.52292 215.39395 10.0 209.87103 10.0 C  204.34811 10.0 199.87103 5.52292 199.87103 0.0 C  199.87103 -5.52292 204.34811 -10.0 209.87103 -10.0 C  215.39395 -10.0 219.87103 -5.52292 219.87103 0.0 Z M  209.87103 0.0  " />
 </g>
 </g>
 <g>
 <g transform="matrix(1.0,0.0,0.0,1.0,203.65154,-4.1818)">
 <g fill="rgb(0.0%,0.0%,0.0%)">
 <text style="stroke:none" transform="scale(1,-1) translate(6.2195,0)" text-anchor="middle"  font-size="10"> 
<tspan font-family="rm-lmr" font-size="17">+</tspan></text> 
</g>
 </g>
 </g>
 </g>
 </g>
 </g>
 </g>
 <g>
 <g stroke-width="1.0pt">
 <g>
 <g fill="rgb(100.0%,100.0%,100.0%)">
 <g>
 <g fill="rgb(100.0%,100.0%,100.0%)">
 <path d=" M  242.63332 -43.6791 C  242.63332 -38.15617 238.15623 -33.6791 232.63332 -33.6791 C  227.1104 -33.6791 222.63332 -38.15617 222.63332 -43.6791 C  222.63332 -49.20201 227.1104 -53.6791 232.63332 -53.6791 C  238.15623 -53.6791 242.63332 -49.20201 242.63332 -43.6791 Z M  232.63332 -43.6791  " />
 </g>
 </g>
 <g>
 <g transform="matrix(1.0,0.0,0.0,1.0,226.41382,-47.86089)">
 <g fill="rgb(0.0%,0.0%,0.0%)">
 <text style="stroke:none" transform="scale(1,-1) translate(6.2195,0)" text-anchor="middle"  font-size="10"> 
<tspan font-family="rm-lmr" font-size="17">+</tspan></text> 
</g>
 </g>
 </g>
 </g>
 </g>
 </g>
 </g>
 <g>
 <g stroke-width="1.0pt">
 <g>
 <g fill="rgb(100.0%,100.0%,100.0%)">
 <g>
 <g fill="rgb(100.0%,100.0%,100.0%)">
 <path d=" M  151.00145 -115.81093 h  34.14322 v  28.45273 h  -34.14322 Z  " />
 </g>
 </g>
 <g>
 <g transform="matrix(1.0,0.0,0.0,1.0,160.5175,-104.25124)">
 <g fill="rgb(0.0%,0.0%,0.0%)">
 <text style="stroke:none" transform="scale(1,-1) translate(7.55556,0)" text-anchor="middle"  font-size="10"> 
<tspan font-family="lmmi" font-size="10">H</tspan><tspan baseline-shift="sub"><tspan font-family="lmmi" font-size="7">L</tspan></tspan></text> 
</g>
 </g>
 </g>
 </g>
 </g>
 </g>
 </g>
 <g>
 <g stroke-width="1.0pt">
 <g>
 <g fill="rgb(100.0%,100.0%,100.0%)">
 <g>
 <g fill="rgb(100.0%,100.0%,100.0%)">
 <path d=" M  151.00145 -159.49002 h  34.14322 v  28.45273 h  -34.14322 Z  " />
 </g>
 </g>
 <g>
 <g transform="matrix(1.0,0.0,0.0,1.0,159.71822,-147.93033)">
 <g fill="rgb(0.0%,0.0%,0.0%)">
 <text style="stroke:none" transform="scale(1,-1) translate(8.35484,0)" text-anchor="middle"  font-size="10"> 
<tspan font-family="lmmi" font-size="10">H</tspan><tspan baseline-shift="sub"><tspan font-family="lmmi" font-size="7">H</tspan></tspan></text> 
</g>
 </g>
 </g>
 </g>
 </g>
 </g>
 </g>
 <g>
 <g stroke-width="1.0pt">
 <g>
 <g fill="rgb(100.0%,100.0%,100.0%)">
 <g>
 <g fill="rgb(100.0%,100.0%,100.0%)">
 <path d=" M  10.0 -101.58456 C  10.0 -96.06165 5.52292 -91.58456 0.0 -91.58456 C  -5.52292 -91.58456 -10.0 -96.06165 -10.0 -101.58456 C  -10.0 -107.10748 -5.52292 -111.58456 0.0 -111.58456 C  5.52292 -111.58456 10.0 -107.10748 10.0 -101.58456 Z M  0.0 -101.58456  " />
 </g>
 </g>
 <g>
 <g transform="matrix(1.0,0.0,0.0,1.0,-6.2195,-105.76636)">
 <g fill="rgb(0.0%,0.0%,0.0%)">
 <text style="stroke:none" transform="scale(1,-1) translate(6.2195,0)" text-anchor="middle"  font-size="10"> 
<tspan font-family="rm-lmr" font-size="17">+</tspan></text> 
</g>
 </g>
 </g>
 </g>
 </g>
 </g>
 </g>
 <g>
 <g stroke-width="1.0pt">
 <g>
 <g fill="rgb(100.0%,100.0%,100.0%)">
 <g>
 <g fill="rgb(100.0%,100.0%,100.0%)">
 <path d=" M  262.46593 42.5949 C  262.46593 48.11781 257.98885 52.5949 252.46593 52.5949 C  246.94301 52.5949 242.46593 48.11781 242.46593 42.5949 C  242.46593 37.07198 246.94301 32.5949 252.46593 32.5949 C  257.98885 32.5949 262.46593 37.07198 262.46593 42.5949 Z M  252.46593 42.5949  " />
 </g>
 </g>
 <g>
 <g transform="matrix(1.0,0.0,0.0,1.0,246.24643,38.4131)">
 <g fill="rgb(0.0%,0.0%,0.0%)">
 <text style="stroke:none" transform="scale(1,-1) translate(6.2195,0)" text-anchor="middle"  font-size="10"> 
<tspan font-family="rm-lmr" font-size="17">+</tspan></text> 
</g>
 </g>
 </g>
 </g>
 </g>
 <g>
 <g>
 <g transform="matrix(1.0,0.0,0.0,1.0,242.68813,24.76157)">
 <g fill="rgb(0.0%,0.0%,0.0%)">
 <text style="stroke:none" transform="scale(1,-1) translate(3.8889,0)" text-anchor="middle"  font-size="10"> 
<tspan font-family="lmsy" font-size="10">-</tspan></text> 
</g>
 </g>
 </g>
 </g>
 </g>
 </g>
 <g>
 <g stroke-width="1.0pt">
 <g>
 <g fill="rgb(100.0%,100.0%,100.0%)">
 <g>
 <g fill="rgb(100.0%,100.0%,100.0%)">
 <path d=" M  262.46593 -101.58456 C  262.46593 -96.06165 257.98885 -91.58456 252.46593 -91.58456 C  246.94301 -91.58456 242.46593 -96.06165 242.46593 -101.58456 C  242.46593 -107.10748 246.94301 -111.58456 252.46593 -111.58456 C  257.98885 -111.58456 262.46593 -107.10748 262.46593 -101.58456 Z M  252.46593 -101.58456  " />
 </g>
 </g>
 <g>
 <g transform="matrix(1.0,0.0,0.0,1.0,246.24643,-105.76636)">
 <g fill="rgb(0.0%,0.0%,0.0%)">
 <text style="stroke:none" transform="scale(1,-1) translate(6.2195,0)" text-anchor="middle"  font-size="10"> 
<tspan font-family="rm-lmr" font-size="17">+</tspan></text> 
</g>
 </g>
 </g>
 </g>
 </g>
 </g>
 </g>
 <g>
 <g stroke-width="1.0pt">
 <g>
 <g fill="rgb(100.0%,100.0%,100.0%)">
 <g>
 <g fill="rgb(100.0%,100.0%,100.0%)">
 <path d=" M  285.2282 -145.26366 C  285.2282 -139.74074 280.75111 -135.26366 275.2282 -135.26366 C  269.70528 -135.26366 265.2282 -139.74074 265.2282 -145.26366 C  265.2282 -150.78658 269.70528 -155.26366 275.2282 -155.26366 C  280.75111 -155.26366 285.2282 -150.78658 285.2282 -145.26366 Z M  275.2282 -145.26366  " />
 </g>
 </g>
 <g>
 <g transform="matrix(1.0,0.0,0.0,1.0,269.0087,-149.44545)">
 <g fill="rgb(0.0%,0.0%,0.0%)">
 <text style="stroke:none" transform="scale(1,-1) translate(6.2195,0)" text-anchor="middle"  font-size="10"> 
<tspan font-family="rm-lmr" font-size="17">+</tspan></text> 
</g>
 </g>
 </g>
 </g>
 </g>
 </g>
 </g>
 <g>
 <g stroke-width="1.0pt">
 <path d=" M  -14.65091 0.0 L  -38.45274 0.0  " style="fill:none"/>
 <g>
 <g transform="matrix(1.0,0.0,0.0,1.0,-17.5,0.0)">
 <g>
 <g stroke-dasharray="none" stroke-dashoffset="0.0pt">
 <g stroke-linejoin="miter">
 <path d=" M  6.07602 0.0 L  1.61476 1.68935 L  3.09909 0.0 L  1.61476 -1.68935 Z  " />
 </g>
 </g>
 </g>
  </g>
 </g>
 <g>
 <g>
 <g transform="matrix(1.0,0.0,0.0,1.0,-34.61977,3.83298)">
 <g fill="rgb(0.0%,0.0%,0.0%)">
 <text style="stroke:none" transform="scale(1,-1) translate(2.39468,0)" text-anchor="middle"  font-size="10"> 
<tspan font-family="lmmi" font-size="10">r</tspan></text> 
</g>
 </g>
 </g>
 </g>
 </g>
 </g>
 <g>
 <g stroke-width="1.0pt">
 <path d=" M  10.0 0.0 L  33.80183 0.0  " style="fill:none"/>
 <g>
 <g transform="matrix(1.0,0.0,0.0,1.0,30.95274,0.0)">
 <g>
 <g stroke-dasharray="none" stroke-dashoffset="0.0pt">
 <g stroke-linejoin="miter">
 <path d=" M  6.07602 0.0 L  1.61476 1.68935 L  3.09909 0.0 L  1.61476 -1.68935 Z  " />
 </g>
 </g>
 </g>
  </g>
 </g>
 <g>
 <g>
 <g transform="matrix(1.0,0.0,0.0,1.0,21.60234,6.69406)">
 <g fill="rgb(0.0%,0.0%,0.0%)">
 <text style="stroke:none" transform="scale(1,-1) translate(6.50871,0)" text-anchor="middle"  font-size="10"> 
<tspan font-family="lmmi" font-size="10">&#x03F5;</tspan><tspan baseline-shift="sub"><tspan font-family="lmmi" font-size="7">sf</tspan> </tspan></text> 
</g>
 </g>
 </g>
 </g>
 </g>
 </g>
 <g>
 <g stroke-width="1.0pt">
 <path d=" M  73.59596 0.0 L  97.3978 0.0  " style="fill:none"/>
 <g>
 <g transform="matrix(1.0,0.0,0.0,1.0,94.5487,0.0)">
 <g>
 <g stroke-dasharray="none" stroke-dashoffset="0.0pt">
 <g stroke-linejoin="miter">
 <path d=" M  6.07602 0.0 L  1.61476 1.68935 L  3.09909 0.0 L  1.61476 -1.68935 Z  " />
 </g>
 </g>
 </g>
  </g>
 </g>
 </g>
 </g>
 <g>
 <g stroke-width="1.0pt">
 <path d=" M  122.0487 0.0 L  145.85054 0.0  " style="fill:none"/>
 <g>
 <g transform="matrix(1.0,0.0,0.0,1.0,143.00145,0.0)">
 <g>
 <g stroke-dasharray="none" stroke-dashoffset="0.0pt">
 <g stroke-linejoin="miter">
 <path d=" M  6.07602 0.0 L  1.61476 1.68935 L  3.09909 0.0 L  1.61476 -1.68935 Z  " />
 </g>
 </g>
 </g>
  </g>
 </g>
 <g>
 <g>
 <g transform="matrix(1.0,0.0,0.0,1.0,140.9439,3.83298)">
 <g fill="rgb(0.0%,0.0%,0.0%)">
 <text style="stroke:none" transform="scale(1,-1) translate(2.86229,0)" text-anchor="middle"  font-size="10"> 
<tspan font-family="lmmi" font-size="10">u</tspan></text> 
</g>
 </g>
 </g>
 </g>
 </g>
 </g>
 <g>
 <g stroke-width="1.0pt">
 <path d=" M  130.58461 0.0 L  130.58461 -43.6791 L  145.85054 -43.6791  " style="fill:none"/>
 <g>
 <g transform="matrix(1.0,0.0,0.0,1.0,143.00145,-43.6791)">
 <g>
 <g stroke-dasharray="none" stroke-dashoffset="0.0pt">
 <g stroke-linejoin="miter">
 <path d=" M  6.07602 0.0 L  1.61476 1.68935 L  3.09909 0.0 L  1.61476 -1.68935 Z  " />
 </g>
 </g>
 </g>
  </g>
 </g>
 <g>
 <path d=" M  132.58461 0.0 C  132.58461 1.10458 131.6892 2.0 130.58461 2.0 C  129.48003 2.0 128.58461 1.10458 128.58461 0.0 C  128.58461 -1.10458 129.48003 -2.0 130.58461 -2.0 C  131.6892 -2.0 132.58461 -1.10458 132.58461 0.0 Z M  130.58461 0.0  " style="stroke:none"/>
 <g>
 <g transform="matrix(1.0,0.0,0.0,1.0,130.58461,0.0)">
 <g fill="rgb(0.0%,0.0%,0.0%)">
 <text style="stroke:none" transform="scale(1,-1) translate(0.0,0)" text-anchor="middle"  font-size="10"> 
</text> 
</g>
 </g>
 </g>
 </g>
 </g>
 </g>
 <g>
 <g stroke-width="1.0pt">
 <path d=" M  262.46593 42.5949 L  300.49413 42.5949  " style="fill:none"/>
 <g>
 <g transform="matrix(1.0,0.0,0.0,1.0,297.64503,42.5949)">
 <g>
 <g stroke-dasharray="none" stroke-dashoffset="0.0pt">
 <g stroke-linejoin="miter">
 <path d=" M  6.07602 0.0 L  1.61476 1.68935 L  3.09909 0.0 L  1.61476 -1.68935 Z  " />
 </g>
 </g>
 </g>
  </g>
 </g>
 <g>
 </g>
 <g>
 <g>
 <g transform="matrix(1.0,0.0,0.0,1.0,297.25304,46.42787)">
 <g fill="rgb(0.0%,0.0%,0.0%)">
 <text style="stroke:none" transform="scale(1,-1) translate(2.02951,0)" text-anchor="middle"  font-size="10"> 
<tspan font-family="lmmi" font-size="10">&#x03F5;</tspan></text> 
</g>
 </g>
 </g>
 </g>
 </g>
 </g>
 <g>
 <g stroke-width="1.0pt">
 <path d=" M  185.64467 0.0 L  195.22012 0.0  " style="fill:none"/>
 <g>
 <g transform="matrix(1.0,0.0,0.0,1.0,192.37103,0.0)">
 <g>
 <g stroke-dasharray="none" stroke-dashoffset="0.0pt">
 <g stroke-linejoin="miter">
 <path d=" M  6.07602 0.0 L  1.61476 1.68935 L  3.09909 0.0 L  1.61476 -1.68935 Z  " />
 </g>
 </g>
 </g>
  </g>
 </g>
 </g>
 </g>
 <g>
 <g stroke-width="1.0pt">
 <path d=" M  185.64467 -43.6791 L  217.9824 -43.6791  " style="fill:none"/>
 <g>
 <g transform="matrix(1.0,0.0,0.0,1.0,215.13332,-43.6791)">
 <g>
 <g stroke-dasharray="none" stroke-dashoffset="0.0pt">
 <g stroke-linejoin="miter">
 <path d=" M  6.07602 0.0 L  1.61476 1.68935 L  3.09909 0.0 L  1.61476 -1.68935 Z  " />
 </g>
 </g>
 </g>
  </g>
 </g>
 </g>
 </g>
 <g>
 <g stroke-width="1.0pt">
 <path d=" M  219.87103 0.0 L  300.49413 0.0  " style="fill:none"/>
 <g>
 <g transform="matrix(1.0,0.0,0.0,1.0,297.64503,0.0)">
 <g>
 <g stroke-dasharray="none" stroke-dashoffset="0.0pt">
 <g stroke-linejoin="miter">
 <path d=" M  6.07602 0.0 L  1.61476 1.68935 L  3.09909 0.0 L  1.61476 -1.68935 Z  " />
 </g>
 </g>
 </g>
  </g>
 </g>
 <g>
 <g>
 <g transform="matrix(1.0,0.0,0.0,1.0,296.05046,5.7774)">
 <g fill="rgb(0.0%,0.0%,0.0%)">
 <text style="stroke:none" transform="scale(1,-1) translate(2.6308,0)" text-anchor="middle"  font-size="10"> 
<tspan font-family="lmmi" font-size="10">y</tspan></text> 
</g>
 </g>
 </g>
 </g>
 </g>
 </g>
 <g>
 <g stroke-width="1.0pt">
 <path d=" M  242.63332 -43.6791 L  300.49413 -43.6791  " style="fill:none"/>
 <g>
 <g transform="matrix(1.0,0.0,0.0,1.0,297.64503,-43.6791)">
 <g>
 <g stroke-dasharray="none" stroke-dashoffset="0.0pt">
 <g stroke-linejoin="miter">
 <path d=" M  6.07602 0.0 L  1.61476 1.68935 L  3.09909 0.0 L  1.61476 -1.68935 Z  " />
 </g>
 </g>
 </g>
  </g>
 </g>
 <g>
 <g>
 <g transform="matrix(1.0,0.0,0.0,1.0,291.97673,-37.90169)">
 <g fill="rgb(0.0%,0.0%,0.0%)">
 <text style="stroke:none" transform="scale(1,-1) translate(4.66766,0)" text-anchor="middle"  font-size="10"> 
<tspan font-family="lmmi" font-size="10">y</tspan><tspan baseline-shift="sub"><tspan font-family="lmmi" font-size="7">c</tspan> </tspan></text> 
</g>
 </g>
 </g>
 </g>
 </g>
 </g>
 <g>
 <g stroke-width="1.0pt">
 <path d=" M  150.50145 -101.58456 L  14.65091 -101.58456  " style="fill:none"/>
 <g>
 <g transform="matrix(-1.0,0.0,0.0,-1.0,17.5,-101.58456)">
 <g>
 <g stroke-dasharray="none" stroke-dashoffset="0.0pt">
 <g stroke-linejoin="miter">
 <path d=" M  6.07602 0.0 L  1.61476 1.68935 L  3.09909 0.0 L  1.61476 -1.68935 Z  " />
 </g>
 </g>
 </g>
  </g>
 </g>
 </g>
 </g>
 <g>
 <g stroke-width="1.0pt">
 <path d=" M  150.50145 -145.26366 L  0.0 -145.26366 L  0.0 -116.23547  " style="fill:none"/>
 <g>
 <g transform="matrix(0.0,1.0,-1.0,0.0,0.0,-119.08456)">
 <g>
 <g stroke-dasharray="none" stroke-dashoffset="0.0pt">
 <g stroke-linejoin="miter">
 <path d=" M  6.07602 0.0 L  1.61476 1.68935 L  3.09909 0.0 L  1.61476 -1.68935 Z  " />
 </g>
 </g>
 </g>
  </g>
 </g>
 </g>
 </g>
 <g>
 <g stroke-width="1.0pt">
 <path d=" M  0.0 -91.58456 L  0.0 -14.65091  " style="fill:none"/>
 <g>
 <g transform="matrix(0.0,1.0,-1.0,0.0,0.0,-17.5)">
 <g>
 <g stroke-dasharray="none" stroke-dashoffset="0.0pt">
 <g stroke-linejoin="miter">
 <path d=" M  6.07602 0.0 L  1.61476 1.68935 L  3.09909 0.0 L  1.61476 -1.68935 Z  " />
 </g>
 </g>
 </g>
  </g>
 </g>
 <g>
 <g>
 <g transform="matrix(1.0,0.0,0.0,1.0,3.83298,-18.13852)">
 <g fill="rgb(0.0%,0.0%,0.0%)">
 <text style="stroke:none" transform="scale(1,-1) translate(7.11,0)" text-anchor="middle"  font-size="10"> 
<tspan font-family="lmmi" font-size="10">y</tspan><tspan baseline-shift="sub"><tspan font-family="lmmi" font-size="7">sf</tspan> </tspan></text> 
</g>
 </g>
 </g>
 </g>
 </g>
 </g>
 <g>
 <g stroke-width="1.0pt">
 <g stroke="rgb(100.0%,100.0%,100.0%)">
 <g stroke-width="1.0pt">
 <g>
 <g stroke-width="3.0pt">
 <path d=" M  252.46593 0.0 L  252.46593 -86.97412  " style="fill:none"/>
 <g>
 <g stroke-width="1.0pt">
 <g stroke="rgb(0.0%,0.0%,0.0%)">
 <path d=" M  252.46593 0.0 L  252.46593 -86.97412  " style="fill:none"/>
 </g>
 </g>
 </g>
 <g>
 <g stroke="rgb(0.0%,0.0%,0.0%)">
 <g transform="matrix(0.0,-1.0,1.0,0.0,252.46593,-84.14452)">
 <g>
 <g stroke-dasharray="none" stroke-dashoffset="0.0pt">
 <g stroke-linejoin="miter">
 <g stroke-width="1.0pt">
 <path d=" M  6.01608 0.0 L  1.6147 1.66692 L  3.0796 0.0 L  1.6147 -1.66692 Z  " />
 </g>
 </g>
 </g>
 </g>
  </g>
 </g>
 </g>
 </g>
 </g>
 <g>
 <path d=" M  254.46593 0.0 C  254.46593 1.10458 253.57051 2.0 252.46593 2.0 C  251.36134 2.0 250.46593 1.10458 250.46593 0.0 C  250.46593 -1.10458 251.36134 -2.0 252.46593 -2.0 C  253.57051 -2.0 254.46593 -1.10458 254.46593 0.0 Z M  252.46593 0.0  " style="stroke:none"/>
 <g>
 <g transform="matrix(1.0,0.0,0.0,1.0,252.46593,0.0)">
 <g fill="rgb(0.0%,0.0%,0.0%)">
 <text style="stroke:none" transform="scale(1,-1) translate(0.0,0)" text-anchor="middle"  font-size="10"> 
</text> 
</g>
 </g>
 </g>
 </g>
 </g>
 </g>
 </g>
 </g>
 <g>
 <g stroke-width="1.0pt">
 <path d=" M  275.2282 -43.6791 L  275.2282 -130.61275  " style="fill:none"/>
 <g>
 <g transform="matrix(0.0,-1.0,1.0,0.0,275.2282,-127.76366)">
 <g>
 <g stroke-dasharray="none" stroke-dashoffset="0.0pt">
 <g stroke-linejoin="miter">
 <path d=" M  6.07602 0.0 L  1.61476 1.68935 L  3.09909 0.0 L  1.61476 -1.68935 Z  " />
 </g>
 </g>
 </g>
  </g>
 </g>
 <g>
 <path d=" M  277.2282 -43.6791 C  277.2282 -42.57451 276.33278 -41.6791 275.2282 -41.6791 C  274.12361 -41.6791 273.2282 -42.57451 273.2282 -43.6791 C  273.2282 -44.78368 274.12361 -45.6791 275.2282 -45.6791 C  276.33278 -45.6791 277.2282 -44.78368 277.2282 -43.6791 Z M  275.2282 -43.6791  " style="stroke:none"/>
 <g>
 <g transform="matrix(1.0,0.0,0.0,1.0,275.2282,-43.6791)">
 <g fill="rgb(0.0%,0.0%,0.0%)">
 <text style="stroke:none" transform="scale(1,-1) translate(0.0,0)" text-anchor="middle"  font-size="10"> 
</text> 
</g>
 </g>
 </g>
 </g>
 </g>
 </g>
 <g>
 <g stroke-width="1.0pt">
 <path d=" M  242.46593 -101.58456 L  190.29558 -101.58456  " style="fill:none"/>
 <g>
 <g transform="matrix(-1.0,0.0,0.0,-1.0,193.14467,-101.58456)">
 <g>
 <g stroke-dasharray="none" stroke-dashoffset="0.0pt">
 <g stroke-linejoin="miter">
 <path d=" M  6.07602 0.0 L  1.61476 1.68935 L  3.09909 0.0 L  1.61476 -1.68935 Z  " />
 </g>
 </g>
 </g>
  </g>
 </g>
 </g>
 </g>
 <g>
 <g stroke-width="1.0pt">
 <path d=" M  265.2282 -145.26366 L  190.29558 -145.26366  " style="fill:none"/>
 <g>
 <g transform="matrix(-1.0,0.0,0.0,-1.0,193.14467,-145.26366)">
 <g>
 <g stroke-dasharray="none" stroke-dashoffset="0.0pt">
 <g stroke-linejoin="miter">
 <path d=" M  6.07602 0.0 L  1.61476 1.68935 L  3.09909 0.0 L  1.61476 -1.68935 Z  " />
 </g>
 </g>
 </g>
  </g>
 </g>
 </g>
 </g>
 <g>
 <g stroke-width="1.0pt">
 <path d=" M  252.46593 0.0 L  252.46593 27.94398  " style="fill:none"/>
 <g>
 <g transform="matrix(0.0,1.0,-1.0,0.0,252.46593,25.0949)">
 <g>
 <g stroke-dasharray="none" stroke-dashoffset="0.0pt">
 <g stroke-linejoin="miter">
 <path d=" M  6.07602 0.0 L  1.61476 1.68935 L  3.09909 0.0 L  1.61476 -1.68935 Z  " />
 </g>
 </g>
 </g>
  </g>
 </g>
 </g>
 </g>
 <g>
 <g stroke-width="1.0pt">
 <path d=" M  -24.22636 0.0 L  -24.22636 42.5949 L  237.81502 42.5949  " style="fill:none"/>
 <g>
 <g transform="matrix(1.0,0.0,0.0,1.0,234.96593,42.5949)">
 <g>
 <g stroke-dasharray="none" stroke-dashoffset="0.0pt">
 <g stroke-linejoin="miter">
 <path d=" M  6.07602 0.0 L  1.61476 1.68935 L  3.09909 0.0 L  1.61476 -1.68935 Z  " />
 </g>
 </g>
 </g>
  </g>
 </g>
 <g>
 <path d=" M  -22.22636 0.0 C  -22.22636 1.10458 -23.12178 2.0 -24.22636 2.0 C  -25.33095 2.0 -26.22636 1.10458 -26.22636 0.0 C  -26.22636 -1.10458 -25.33095 -2.0 -24.22636 -2.0 C  -23.12178 -2.0 -22.22636 -1.10458 -22.22636 0.0 Z M  -24.22636 0.0  " style="stroke:none"/>
 <g>
 <g transform="matrix(1.0,0.0,0.0,1.0,-24.22636,0.0)">
 <g fill="rgb(0.0%,0.0%,0.0%)">
 <text style="stroke:none" transform="scale(1,-1) translate(0.0,0)" text-anchor="middle"  font-size="10"> 
</text> 
</g>
 </g>
 </g>
 </g>
 </g>
 </g>
 <g>
 <g stroke-width="1.0pt">
 <path d=" M  112.0487 14.65091 L  112.0487 32.76227  " style="fill:none"/>
 <g>
 <g transform="matrix(0.0,-1.0,1.0,0.0,112.0487,17.5)">
 <g>
 <g stroke-dasharray="none" stroke-dashoffset="0.0pt">
 <g stroke-linejoin="miter">
 <path d=" M  6.07602 0.0 L  1.61476 1.68935 L  3.09909 0.0 L  1.61476 -1.68935 Z  " />
 </g>
 </g>
 </g>
  </g>
 </g>
 <g>
 <g>
 <g transform="matrix(1.0,0.0,0.0,1.0,115.88168,21.98485)">
 <g fill="rgb(0.0%,0.0%,0.0%)">
 <text style="stroke:none" transform="scale(1,-1) translate(5.21646,0)" text-anchor="middle"  font-size="10"> 
<tspan font-family="lmmi" font-size="10">d</tspan><tspan baseline-shift="sub"><tspan font-family="lmmi" font-size="7">u</tspan> </tspan></text> 
</g>
 </g>
 </g>
 </g>
 </g>
 </g>
 <g>
 <g stroke-width="1.0pt">
 <path d=" M  209.87103 14.65091 L  209.87103 32.76227  " style="fill:none"/>
 <g>
 <g transform="matrix(0.0,-1.0,1.0,0.0,209.87103,17.5)">
 <g>
 <g stroke-dasharray="none" stroke-dashoffset="0.0pt">
 <g stroke-linejoin="miter">
 <path d=" M  6.07602 0.0 L  1.61476 1.68935 L  3.09909 0.0 L  1.61476 -1.68935 Z  " />
 </g>
 </g>
 </g>
  </g>
 </g>
 <g>
 <g>
 <g transform="matrix(1.0,0.0,0.0,1.0,213.70401,21.98486)">
 <g fill="rgb(0.0%,0.0%,0.0%)">
 <text style="stroke:none" transform="scale(1,-1) translate(5.0058,0)" text-anchor="middle"  font-size="10"> 
<tspan font-family="lmmi" font-size="10">d</tspan><tspan baseline-shift="sub"><tspan font-family="lmmi" font-size="7">y</tspan> </tspan></text> 
</g>
 </g>
 </g>
 </g>
 </g>
 </g>
 <g>
 <g stroke-width="1.0pt">
 <path d=" M  232.63332 -29.02818 L  232.63332 -10.91682  " style="fill:none"/>
 <g>
 <g transform="matrix(0.0,-1.0,1.0,0.0,232.63332,-26.1791)">
 <g>
 <g stroke-dasharray="none" stroke-dashoffset="0.0pt">
 <g stroke-linejoin="miter">
 <path d=" M  6.07602 0.0 L  1.61476 1.68935 L  3.09909 0.0 L  1.61476 -1.68935 Z  " />
 </g>
 </g>
 </g>
  </g>
 </g>
 <g>
 <g>
 <g transform="matrix(1.0,0.0,0.0,1.0,236.4663,-21.69423)">
 <g fill="rgb(0.0%,0.0%,0.0%)">
 <text style="stroke:none" transform="scale(1,-1) translate(6.79268,0)" text-anchor="middle"  font-size="10"> 
<tspan font-family="lmmi" font-size="10">d</tspan><tspan baseline-shift="sub"><tspan font-family="lmmi" font-size="7">yc</tspan> </tspan></text> 
</g>
 </g>
 </g>
 </g>
 </g>
 </g>
 <g>
 <g stroke-width="1.0pt">
 <g stroke="rgb(100.0%,100.0%,100.0%)">
 <g stroke-width="1.0pt">
 <g>
 <g stroke-width="3.0pt">
 <path d=" M  265.96591 -101.58456 L  305.14503 -101.58456  " style="fill:none"/>
 <g>
 <g stroke-width="1.0pt">
 <g stroke="rgb(0.0%,0.0%,0.0%)">
 <path d=" M  265.96591 -101.58456 L  305.14503 -101.58456  " style="fill:none"/>
 </g>
 </g>
 </g>
 <g>
 <g stroke="rgb(0.0%,0.0%,0.0%)">
 <g transform="matrix(-1.0,0.0,0.0,-1.0,265.96591,-101.58456)">
 <g>
 <path d=" M  3.49998 0.0 L  -2.09999 2.79999 L  0.0 0.0 L  -2.09999 -2.79999  " style="stroke:none"/>
 </g>
  </g>
 </g>
 </g>
 </g>
 </g>
 <g>
 <g>
 <g transform="matrix(1.0,0.0,0.0,1.0,295.30971,-97.75159)">
 <g fill="rgb(0.0%,0.0%,0.0%)">
 <text style="stroke:none" transform="scale(1,-1) translate(3.00117,0)" text-anchor="middle"  font-size="10"> 
<tspan font-family="lmmi" font-size="10">n</tspan></text> 
</g>
 </g>
 </g>
 </g>
 </g>
 </g>
 </g>
 </g>
 <g>
 <g stroke-width="1.0pt">
 <path d=" M  289.8791 -145.26366 L  305.14503 -145.26366  " style="fill:none"/>
 <g>
 <g transform="matrix(-1.0,0.0,0.0,-1.0,292.7282,-145.26366)">
 <g>
 <g stroke-dasharray="none" stroke-dashoffset="0.0pt">
 <g stroke-linejoin="miter">
 <path d=" M  6.07602 0.0 L  1.61476 1.68935 L  3.09909 0.0 L  1.61476 -1.68935 Z  " />
 </g>
 </g>
 </g>
  </g>
 </g>
 <g>
 <g>
 <g transform="matrix(1.0,0.0,0.0,1.0,291.23598,-139.93071)">
 <g fill="rgb(0.0%,0.0%,0.0%)">
 <text style="stroke:none" transform="scale(1,-1) translate(5.03804,0)" text-anchor="middle"  font-size="10"> 
<tspan font-family="lmmi" font-size="10">n</tspan><tspan baseline-shift="sub"><tspan font-family="lmmi" font-size="7">c</tspan> </tspan></text> 
</g>
 </g>
 </g>
 </g>
 </g>
 </g>
 </g>
 </g>
 </g>
 </g>
 </g>
 
                                                                                                          </g> 
</svg> 
