<?xml version="1.0" encoding="iso-8859-1" standalone="no"?> 
<?xml-stylesheet href="latex-AhaCuX.css" type="text/css"?> 
<svg xmlns="http://www.w3.org/2000/svg" xmlns:xlink="http://www.w3.org/1999/xlink" width="313.30032pt" height="120.12714pt" viewBox="-38.95274 -72.63184 313.30032 120.12714 "> 
<g transform="translate(0, 47.4953 ) scale(1,-1) translate(0,72.63184 )"> 
            <g>
 <g stroke="rgb(0.0%,0.0%,0.0%)">
 <g fill="rgb(0.0%,0.0%,0.0%)">
 <g stroke-width="0.4pt">
 <g>
 </g>
 <g>
 <g>
 <g stroke-width="1.0pt">
 <g>
 <g fill="rgb(100.0%,100.0%,100.0%)">
 <g>
 <g fill="rgb(100.0%,100.0%,100.0%)">
 <path d=" M  10.0 0.0 C  10.0 5.52292 5.52292 10.0 0.0 10.0 C  -5.52292 10.0 -10.0 5.52292 -10.0 0.0 C  -10.0 -5.52292 -5.52292 -10.0 0.0 -10.0 C  5.52292 -10.0 10.0 -5.52292 10.0 0.0 Z M  0.0 0.0  " />
 </g>
 </g>
 <g>
 <g transform="matrix(1.0,0.0,0.0,1.0,-6.2195,-4.1818)">
 <g fill="rgb(0.0%,0.0%,0.0%)">
 <text style="stroke:none" transform="scale(1,-1) translate(6.2195,0)" text-anchor="middle"  font-size="10"> 
<tspan font-family="rm-lmr" font-size="17">+</tspan></text> 
</g>
 </g>
 </g>
 </g>
 </g>
 <g>
 <g>
 <g transform="matrix(1.0,0.0,0.0,1.0,-9.7778,-17.83333)">
 <g fill="rgb(0.0%,0.0%,0.0%)">
 <text style="stroke:none" transform="scale(1,-1) translate(3.8889,0)" text-anchor="middle"  font-size="10"> 
<tspan font-family="lmsy" font-size="10">-</tspan></text> 
</g>
 </g>
 </g>
 </g>
 </g>
 </g>
 <g>
 <g stroke-width="1.0pt">
 <g>
 <g fill="rgb(100.0%,100.0%,100.0%)">
 <g>
 <g fill="rgb(100.0%,100.0%,100.0%)">
 <path d=" M  58.45274 0.0 C  58.45274 5.52292 53.97566 10.0 48.45274 10.0 C  42.92982 10.0 38.45274 5.52292 38.45274 0.0 C  38.45274 -5.52292 42.92982 -10.0 48.45274 -10.0 C  53.97566 -10.0 58.45274 -5.52292 58.45274 0.0 Z M  48.45274 0.0  " />
 </g>
 </g>
 <g>
 <g transform="matrix(1.0,0.0,0.0,1.0,42.23325,-4.1818)">
 <g fill="rgb(0.0%,0.0%,0.0%)">
 <text style="stroke:none" transform="scale(1,-1) translate(6.2195,0)" text-anchor="middle"  font-size="10"> 
<tspan font-family="rm-lmr" font-size="17">+</tspan></text> 
</g>
 </g>
 </g>
 </g>
 </g>
 <g>
 <g>
 <g transform="matrix(1.0,0.0,0.0,1.0,38.67494,-17.83333)">
 <g fill="rgb(0.0%,0.0%,0.0%)">
 <text style="stroke:none" transform="scale(1,-1) translate(3.8889,0)" text-anchor="middle"  font-size="10"> 
<tspan font-family="lmsy" font-size="10">-</tspan></text> 
</g>
 </g>
 </g>
 </g>
 </g>
 </g>
 <g>
 <g stroke-width="1.0pt">
 <g>
 <g fill="rgb(100.0%,100.0%,100.0%)">
 <g>
 <g fill="rgb(100.0%,100.0%,100.0%)">
 <path d=" M  70.25018 -50.25017 h  34.14322 v  28.45273 h  -34.14322 Z  " />
 </g>
 </g>
 <g>
 <g transform="matrix(1.0,0.0,0.0,1.0,76.4108,-38.69048)">
 <g fill="rgb(0.0%,0.0%,0.0%)">
 <text style="stroke:none" transform="scale(1,-1) translate(10.911,0)" text-anchor="middle"  font-size="10"> 
<tspan font-family="lmmi" font-size="10">KG</tspan><tspan baseline-shift="sub"><tspan font-family="lmmi" font-size="7">v</tspan></tspan></text> 
</g>
 </g>
 </g>
 </g>
 </g>
 </g>
 </g>
 <g>
 <g stroke-width="1.0pt">
 <g>
 <g fill="rgb(100.0%,100.0%,100.0%)">
 <g>
 <g fill="rgb(100.0%,100.0%,100.0%)">
 <path d=" M  130.0846 -14.22636 h  34.14322 v  28.45273 h  -34.14322 Z  " />
 </g>
 </g>
 <g>
 <g transform="matrix(1.0,0.0,0.0,1.0,142.55205,-3.41666)">
 <g fill="rgb(0.0%,0.0%,0.0%)">
 <text style="stroke:none" transform="scale(1,-1) translate(4.60416,0)" text-anchor="middle"  font-size="10"> 
<tspan font-family="lmmi" font-size="10">K</tspan></text> 
</g>
 </g>
 </g>
 </g>
 </g>
 </g>
 </g>
 <g>
 <g stroke-width="1.0pt">
 <g>
 <g fill="rgb(100.0%,100.0%,100.0%)">
 <g>
 <g fill="rgb(100.0%,100.0%,100.0%)">
 <path d=" M  193.68056 -14.22636 h  34.14322 v  28.45273 h  -34.14322 Z  " />
 </g>
 </g>
 <g>
 <g transform="matrix(1.0,0.0,0.0,1.0,206.82092,-3.41666)">
 <g fill="rgb(0.0%,0.0%,0.0%)">
 <text style="stroke:none" transform="scale(1,-1) translate(3.93124,0)" text-anchor="middle"  font-size="10"> 
<tspan font-family="lmmi" font-size="10">G</tspan></text> 
</g>
 </g>
 </g>
 </g>
 </g>
 </g>
 </g>
 <g>
 <g stroke-width="1.0pt">
 <g>
 <g fill="rgb(100.0%,100.0%,100.0%)">
 <g>
 <g fill="rgb(100.0%,100.0%,100.0%)">
 <path d=" M  193.68056 -72.13184 h  34.14322 v  28.45273 h  -34.14322 Z  " />
 </g>
 </g>
 <g>
 <g transform="matrix(1.0,0.0,0.0,1.0,203.19661,-60.57214)">
 <g fill="rgb(0.0%,0.0%,0.0%)">
 <text style="stroke:none" transform="scale(1,-1) translate(7.55556,0)" text-anchor="middle"  font-size="10"> 
<tspan font-family="lmmi" font-size="10">H</tspan><tspan baseline-shift="sub"><tspan font-family="lmmi" font-size="7">L</tspan> </tspan></text> 
</g>
 </g>
 </g>
 </g>
 </g>
 </g>
 </g>
 <g>
 <g stroke-width="1.0pt">
 <g>
 <g fill="rgb(100.0%,100.0%,100.0%)">
 <g>
 <g fill="rgb(100.0%,100.0%,100.0%)">
 <path d=" M  259.62122 36.0238 C  259.62122 41.54672 255.14413 46.0238 249.62122 46.0238 C  244.0983 46.0238 239.62122 41.54672 239.62122 36.0238 C  239.62122 30.50089 244.0983 26.0238 249.62122 26.0238 C  255.14413 26.0238 259.62122 30.50089 259.62122 36.0238 Z M  249.62122 36.0238  " />
 </g>
 </g>
 <g>
 <g transform="matrix(1.0,0.0,0.0,1.0,243.40172,31.84201)">
 <g fill="rgb(0.0%,0.0%,0.0%)">
 <text style="stroke:none" transform="scale(1,-1) translate(6.2195,0)" text-anchor="middle"  font-size="10"> 
<tspan font-family="rm-lmr" font-size="17">+</tspan></text> 
</g>
 </g>
 </g>
 </g>
 </g>
 <g>
 <g>
 <g transform="matrix(1.0,0.0,0.0,1.0,239.84341,18.19048)">
 <g fill="rgb(0.0%,0.0%,0.0%)">
 <text style="stroke:none" transform="scale(1,-1) translate(3.8889,0)" text-anchor="middle"  font-size="10"> 
<tspan font-family="lmsy" font-size="10">-</tspan></text> 
</g>
 </g>
 </g>
 </g>
 </g>
 </g>
 <g>
 <g stroke-width="1.0pt">
 <path d=" M  10.0 0.0 L  33.80183 0.0  " style="fill:none"/>
 <g>
 <g transform="matrix(1.0,0.0,0.0,1.0,30.95274,0.0)">
 <g>
 <g stroke-dasharray="none" stroke-dashoffset="0.0pt">
 <g stroke-linejoin="miter">
 <path d=" M  6.07602 0.0 L  1.61476 1.68935 L  3.09909 0.0 L  1.61476 -1.68935 Z  " />
 </g>
 </g>
 </g>
  </g>
 </g>
 <g>
 <g>
 <g transform="matrix(1.0,0.0,0.0,1.0,22.96461,5.33295)">
 <g fill="rgb(0.0%,0.0%,0.0%)">
 <text style="stroke:none" transform="scale(1,-1) translate(5.82758,0)" text-anchor="middle"  font-size="10"> 
<tspan font-family="lmmi" font-size="10">&#x03F5;</tspan><tspan baseline-shift="sub"><tspan font-family="lmmi" font-size="7">m</tspan> </tspan></text> 
</g>
 </g>
 </g>
 </g>
 </g>
 </g>
 <g>
 <g stroke-width="1.0pt">
 <path d=" M  58.45274 0.0 L  124.93369 0.0  " style="fill:none"/>
 <g>
 <g transform="matrix(1.0,0.0,0.0,1.0,122.0846,0.0)">
 <g>
 <g stroke-dasharray="none" stroke-dashoffset="0.0pt">
 <g stroke-linejoin="miter">
 <path d=" M  6.07602 0.0 L  1.61476 1.68935 L  3.09909 0.0 L  1.61476 -1.68935 Z  " />
 </g>
 </g>
 </g>
  </g>
 </g>
 <g>
 <g>
 <g transform="matrix(1.0,0.0,0.0,1.0,112.73419,6.69406)">
 <g fill="rgb(0.0%,0.0%,0.0%)">
 <text style="stroke:none" transform="scale(1,-1) translate(6.50871,0)" text-anchor="middle"  font-size="10"> 
<tspan font-family="lmmi" font-size="10">&#x03F5;</tspan><tspan baseline-shift="sub"><tspan font-family="lmmi" font-size="7">sf</tspan> </tspan></text> 
</g>
 </g>
 </g>
 </g>
 </g>
 </g>
 <g>
 <g stroke-width="1.0pt">
 <path d=" M  164.72781 0.0 L  188.52965 0.0  " style="fill:none"/>
 <g>
 <g transform="matrix(1.0,0.0,0.0,1.0,185.68056,0.0)">
 <g>
 <g stroke-dasharray="none" stroke-dashoffset="0.0pt">
 <g stroke-linejoin="miter">
 <path d=" M  6.07602 0.0 L  1.61476 1.68935 L  3.09909 0.0 L  1.61476 -1.68935 Z  " />
 </g>
 </g>
 </g>
  </g>
 </g>
 <g>
 <g>
 <g transform="matrix(1.0,0.0,0.0,1.0,183.623,3.83298)">
 <g fill="rgb(0.0%,0.0%,0.0%)">
 <text style="stroke:none" transform="scale(1,-1) translate(2.86229,0)" text-anchor="middle"  font-size="10"> 
<tspan font-family="lmmi" font-size="10">u</tspan></text> 
</g>
 </g>
 </g>
 </g>
 </g>
 </g>
 <g>
 <g stroke-width="1.0pt">
 <path d=" M  121.04869 0.0 L  121.04869 -36.0238 L  109.54431 -36.0238  " style="fill:none"/>
 <g>
 <g transform="matrix(-1.0,0.0,0.0,-1.0,112.3934,-36.0238)">
 <g>
 <g stroke-dasharray="none" stroke-dashoffset="0.0pt">
 <g stroke-linejoin="miter">
 <path d=" M  6.07602 0.0 L  1.61476 1.68935 L  3.09909 0.0 L  1.61476 -1.68935 Z  " />
 </g>
 </g>
 </g>
  </g>
 </g>
 <g>
 <path d=" M  123.04869 0.0 C  123.04869 1.10458 122.15327 2.0 121.04869 2.0 C  119.9441 2.0 119.04869 1.10458 119.04869 0.0 C  119.04869 -1.10458 119.9441 -2.0 121.04869 -2.0 C  122.15327 -2.0 123.04869 -1.10458 123.04869 0.0 Z M  121.04869 0.0  " style="stroke:none"/>
 <g>
 <g transform="matrix(1.0,0.0,0.0,1.0,121.04869,0.0)">
 <g fill="rgb(0.0%,0.0%,0.0%)">
 <text style="stroke:none" transform="scale(1,-1) translate(0.0,0)" text-anchor="middle"  font-size="10"> 
</text> 
</g>
 </g>
 </g>
 </g>
 </g>
 </g>
 <g>
 <g stroke-width="1.0pt">
 <path d=" M  69.75018 -36.0238 L  48.45274 -36.0238 L  48.45274 -14.65091  " style="fill:none"/>
 <g>
 <g transform="matrix(0.0,1.0,-1.0,0.0,48.45274,-17.5)">
 <g>
 <g stroke-dasharray="none" stroke-dashoffset="0.0pt">
 <g stroke-linejoin="miter">
 <path d=" M  6.07602 0.0 L  1.61476 1.68935 L  3.09909 0.0 L  1.61476 -1.68935 Z  " />
 </g>
 </g>
 </g>
  </g>
 </g>
 </g>
 </g>
 <g>
 <g stroke-width="1.0pt">
 <path d=" M  193.18056 -57.90547 L  0.0 -57.90547 L  0.0 -14.65091  " style="fill:none"/>
 <g>
 <g transform="matrix(0.0,1.0,-1.0,0.0,0.0,-17.5)">
 <g>
 <g stroke-dasharray="none" stroke-dashoffset="0.0pt">
 <g stroke-linejoin="miter">
 <path d=" M  6.07602 0.0 L  1.61476 1.68935 L  3.09909 0.0 L  1.61476 -1.68935 Z  " />
 </g>
 </g>
 </g>
  </g>
 </g>
 </g>
 </g>
 <g>
 <g stroke-width="1.0pt">
 <path d=" M  259.62122 36.0238 L  269.19667 36.0238  " style="fill:none"/>
 <g>
 <g transform="matrix(1.0,0.0,0.0,1.0,266.34758,36.0238)">
 <g>
 <g stroke-dasharray="none" stroke-dashoffset="0.0pt">
 <g stroke-linejoin="miter">
 <path d=" M  6.07602 0.0 L  1.61476 1.68935 L  3.09909 0.0 L  1.61476 -1.68935 Z  " />
 </g>
 </g>
 </g>
  </g>
 </g>
 <g>
 </g>
 <g>
 <g>
 <g transform="matrix(1.0,0.0,0.0,1.0,265.95558,39.85678)">
 <g fill="rgb(0.0%,0.0%,0.0%)">
 <text style="stroke:none" transform="scale(1,-1) translate(2.02951,0)" text-anchor="middle"  font-size="10"> 
<tspan font-family="lmmi" font-size="10">&#x03F5;</tspan></text> 
</g>
 </g>
 </g>
 </g>
 </g>
 </g>
 <g>
 <g stroke-width="1.0pt">
 <path d=" M  228.32378 0.0 L  269.19667 0.0  " style="fill:none"/>
 <g>
 <g transform="matrix(1.0,0.0,0.0,1.0,266.34758,0.0)">
 <g>
 <g stroke-dasharray="none" stroke-dashoffset="0.0pt">
 <g stroke-linejoin="miter">
 <path d=" M  6.07602 0.0 L  1.61476 1.68935 L  3.09909 0.0 L  1.61476 -1.68935 Z  " />
 </g>
 </g>
 </g>
  </g>
 </g>
 <g>
 <g>
 <g transform="matrix(1.0,0.0,0.0,1.0,264.753,5.7774)">
 <g fill="rgb(0.0%,0.0%,0.0%)">
 <text style="stroke:none" transform="scale(1,-1) translate(2.6308,0)" text-anchor="middle"  font-size="10"> 
<tspan font-family="lmmi" font-size="10">y</tspan></text> 
</g>
 </g>
 </g>
 </g>
 </g>
 </g>
 <g>
 <g stroke-width="1.0pt">
 <path d=" M  -14.65091 0.0 L  -38.45274 0.0  " style="fill:none"/>
 <g>
 <g transform="matrix(1.0,0.0,0.0,1.0,-17.5,0.0)">
 <g>
 <g stroke-dasharray="none" stroke-dashoffset="0.0pt">
 <g stroke-linejoin="miter">
 <path d=" M  6.07602 0.0 L  1.61476 1.68935 L  3.09909 0.0 L  1.61476 -1.68935 Z  " />
 </g>
 </g>
 </g>
  </g>
 </g>
 <g>
 <g>
 <g transform="matrix(1.0,0.0,0.0,1.0,-34.61977,3.83298)">
 <g fill="rgb(0.0%,0.0%,0.0%)">
 <text style="stroke:none" transform="scale(1,-1) translate(2.39468,0)" text-anchor="middle"  font-size="10"> 
<tspan font-family="lmmi" font-size="10">r</tspan></text> 
</g>
 </g>
 </g>
 </g>
 </g>
 </g>
 <g>
 <g stroke-width="1.0pt">
 <path d=" M  249.62122 0.0 L  249.62122 -57.90547 L  232.97469 -57.90547  " style="fill:none"/>
 <g>
 <g transform="matrix(-1.0,0.0,0.0,-1.0,235.82378,-57.90547)">
 <g>
 <g stroke-dasharray="none" stroke-dashoffset="0.0pt">
 <g stroke-linejoin="miter">
 <path d=" M  6.07602 0.0 L  1.61476 1.68935 L  3.09909 0.0 L  1.61476 -1.68935 Z  " />
 </g>
 </g>
 </g>
  </g>
 </g>
 <g>
 <path d=" M  251.62122 0.0 C  251.62122 1.10458 250.7258 2.0 249.62122 2.0 C  248.51663 2.0 247.62122 1.10458 247.62122 0.0 C  247.62122 -1.10458 248.51663 -2.0 249.62122 -2.0 C  250.7258 -2.0 251.62122 -1.10458 251.62122 0.0 Z M  249.62122 0.0  " style="stroke:none"/>
 <g>
 <g transform="matrix(1.0,0.0,0.0,1.0,249.62122,0.0)">
 <g fill="rgb(0.0%,0.0%,0.0%)">
 <text style="stroke:none" transform="scale(1,-1) translate(0.0,0)" text-anchor="middle"  font-size="10"> 
</text> 
</g>
 </g>
 </g>
 </g>
 </g>
 </g>
 <g>
 <g stroke-width="1.0pt">
 <path d=" M  249.62122 0.0 L  249.62122 21.3729  " style="fill:none"/>
 <g>
 <g transform="matrix(0.0,1.0,-1.0,0.0,249.62122,18.5238)">
 <g>
 <g stroke-dasharray="none" stroke-dashoffset="0.0pt">
 <g stroke-linejoin="miter">
 <path d=" M  6.07602 0.0 L  1.61476 1.68935 L  3.09909 0.0 L  1.61476 -1.68935 Z  " />
 </g>
 </g>
 </g>
  </g>
 </g>
 </g>
 </g>
 <g>
 <g stroke-width="1.0pt">
 <path d=" M  -24.22636 0.0 L  -24.22636 36.0238 L  234.9703 36.0238  " style="fill:none"/>
 <g>
 <g transform="matrix(1.0,0.0,0.0,1.0,232.12122,36.0238)">
 <g>
 <g stroke-dasharray="none" stroke-dashoffset="0.0pt">
 <g stroke-linejoin="miter">
 <path d=" M  6.07602 0.0 L  1.61476 1.68935 L  3.09909 0.0 L  1.61476 -1.68935 Z  " />
 </g>
 </g>
 </g>
  </g>
 </g>
 <g>
 <path d=" M  -22.22636 0.0 C  -22.22636 1.10458 -23.12178 2.0 -24.22636 2.0 C  -25.33095 2.0 -26.22636 1.10458 -26.22636 0.0 C  -26.22636 -1.10458 -25.33095 -2.0 -24.22636 -2.0 C  -23.12178 -2.0 -22.22636 -1.10458 -22.22636 0.0 Z M  -24.22636 0.0  " style="stroke:none"/>
 <g>
 <g transform="matrix(1.0,0.0,0.0,1.0,-24.22636,0.0)">
 <g fill="rgb(0.0%,0.0%,0.0%)">
 <text style="stroke:none" transform="scale(1,-1) translate(0.0,0)" text-anchor="middle"  font-size="10"> 
</text> 
</g>
 </g>
 </g>
 </g>
 </g>
 </g>
 </g>
 </g>
 </g>
 </g>
 </g>
 
                                                                                </g> 
</svg> 
