<?xml version="1.0" encoding="iso-8859-1" standalone="no"?> 
<?xml-stylesheet href="latex-l53giF.css" type="text/css"?> 
<svg xmlns="http://www.w3.org/2000/svg" xmlns:xlink="http://www.w3.org/1999/xlink" width="250.62122pt" height="158.57988pt" viewBox="-38.95274 -111.08458 250.62122 158.57988 "> 
<g transform="translate(0, 47.4953 ) scale(1,-1) translate(0,111.08458 )"> 
            <g>
 <g stroke="rgb(0.0%,0.0%,0.0%)">
 <g fill="rgb(0.0%,0.0%,0.0%)">
 <g stroke-width="0.4pt">
 <g>
 </g>
 <g>
 <g>
 <g stroke-width="1.0pt">
 <g>
 <g fill="rgb(100.0%,100.0%,100.0%)">
 <g>
 <g fill="rgb(100.0%,100.0%,100.0%)">
 <path d=" M  10.0 0.0 C  10.0 5.52292 5.52292 10.0 0.0 10.0 C  -5.52292 10.0 -10.0 5.52292 -10.0 0.0 C  -10.0 -5.52292 -5.52292 -10.0 0.0 -10.0 C  5.52292 -10.0 10.0 -5.52292 10.0 0.0 Z M  0.0 0.0  " />
 </g>
 </g>
 <g>
 <g transform="matrix(1.0,0.0,0.0,1.0,-6.2195,-4.1818)">
 <g fill="rgb(0.0%,0.0%,0.0%)">
 <text style="stroke:none" transform="scale(1,-1) translate(6.2195,0)" text-anchor="middle"  font-size="10"> 
<tspan font-family="rm-lmr" font-size="17">+</tspan></text> 
</g>
 </g>
 </g>
 </g>
 </g>
 <g>
 <g>
 <g transform="matrix(1.0,0.0,0.0,1.0,-9.7778,-17.83333)">
 <g fill="rgb(0.0%,0.0%,0.0%)">
 <text style="stroke:none" transform="scale(1,-1) translate(3.8889,0)" text-anchor="middle"  font-size="10"> 
<tspan font-family="lmsy" font-size="10">-</tspan></text> 
</g>
 </g>
 </g>
 </g>
 </g>
 </g>
 <g>
 <g stroke-width="1.0pt">
 <g>
 <g fill="rgb(100.0%,100.0%,100.0%)">
 <g>
 <g fill="rgb(100.0%,100.0%,100.0%)">
 <path d=" M  67.40549 -14.22636 h  34.14322 v  28.45273 h  -34.14322 Z  " />
 </g>
 </g>
 <g>
 <g transform="matrix(1.0,0.0,0.0,1.0,79.87294,-3.41666)">
 <g fill="rgb(0.0%,0.0%,0.0%)">
 <text style="stroke:none" transform="scale(1,-1) translate(4.60416,0)" text-anchor="middle"  font-size="10"> 
<tspan font-family="lmmi" font-size="10">K</tspan></text> 
</g>
 </g>
 </g>
 </g>
 </g>
 </g>
 </g>
 <g>
 <g stroke-width="1.0pt">
 <g>
 <g fill="rgb(100.0%,100.0%,100.0%)">
 <g>
 <g fill="rgb(100.0%,100.0%,100.0%)">
 <path d=" M  131.00145 -14.22636 h  34.14322 v  28.45273 h  -34.14322 Z  " />
 </g>
 </g>
 <g>
 <g transform="matrix(1.0,0.0,0.0,1.0,144.14182,-3.41666)">
 <g fill="rgb(0.0%,0.0%,0.0%)">
 <text style="stroke:none" transform="scale(1,-1) translate(3.93124,0)" text-anchor="middle"  font-size="10"> 
<tspan font-family="lmmi" font-size="10">G</tspan></text> 
</g>
 </g>
 </g>
 </g>
 </g>
 </g>
 </g>
 <g>
 <g stroke-width="1.0pt">
 <g>
 </g>
 </g>
 </g>
 <g>
 <g stroke-width="1.0pt">
 <g>
 <g fill="rgb(100.0%,100.0%,100.0%)">
 <g>
 <g fill="rgb(100.0%,100.0%,100.0%)">
 <path d=" M  21.38113 -57.40547 h  34.14322 v  28.45273 h  -34.14322 Z  " />
 </g>
 </g>
 <g>
 <g transform="matrix(1.0,0.0,0.0,1.0,27.54175,-45.84578)">
 <g fill="rgb(0.0%,0.0%,0.0%)">
 <text style="stroke:none" transform="scale(1,-1) translate(10.911,0)" text-anchor="middle"  font-size="10"> 
<tspan font-family="lmmi" font-size="10">KG</tspan><tspan baseline-shift="sub"><tspan font-family="lmmi" font-size="7">v</tspan></tspan></text> 
</g>
 </g>
 </g>
 </g>
 </g>
 </g>
 </g>
 <g>
 <g stroke-width="1.0pt">
 <g>
 <g fill="rgb(100.0%,100.0%,100.0%)">
 <g>
 <g fill="rgb(100.0%,100.0%,100.0%)">
 <path d=" M  48.45274 -96.35822 C  48.45274 -90.8353 43.97566 -86.35822 38.45274 -86.35822 C  32.92982 -86.35822 28.45274 -90.8353 28.45274 -96.35822 C  28.45274 -101.88113 32.92982 -106.35822 38.45274 -106.35822 C  43.97566 -106.35822 48.45274 -101.88113 48.45274 -96.35822 Z M  38.45274 -96.35822  " />
 </g>
 </g>
 <g>
 <g transform="matrix(1.0,0.0,0.0,1.0,32.23325,-100.54001)">
 <g fill="rgb(0.0%,0.0%,0.0%)">
 <text style="stroke:none" transform="scale(1,-1) translate(6.2195,0)" text-anchor="middle"  font-size="10"> 
<tspan font-family="rm-lmr" font-size="17">+</tspan></text> 
</g>
 </g>
 </g>
 </g>
 </g>
 </g>
 </g>
 <g>
 <g stroke-width="1.0pt">
 <g>
 <g fill="rgb(100.0%,100.0%,100.0%)">
 <g>
 <g fill="rgb(100.0%,100.0%,100.0%)">
 <path d=" M  131.00145 -110.58458 h  34.14322 v  28.45273 h  -34.14322 Z  " />
 </g>
 </g>
 <g>
 <g transform="matrix(1.0,0.0,0.0,1.0,140.5175,-99.02489)">
 <g fill="rgb(0.0%,0.0%,0.0%)">
 <text style="stroke:none" transform="scale(1,-1) translate(7.55556,0)" text-anchor="middle"  font-size="10"> 
<tspan font-family="lmmi" font-size="10">H</tspan><tspan baseline-shift="sub"><tspan font-family="lmmi" font-size="7">L</tspan> </tspan></text> 
</g>
 </g>
 </g>
 </g>
 </g>
 </g>
 </g>
 <g>
 <g stroke-width="1.0pt">
 <g>
 <g fill="rgb(100.0%,100.0%,100.0%)">
 <g>
 <g fill="rgb(100.0%,100.0%,100.0%)">
 <path d=" M  196.94211 36.0238 C  196.94211 41.54672 192.46503 46.0238 186.94211 46.0238 C  181.41919 46.0238 176.94211 41.54672 176.94211 36.0238 C  176.94211 30.50089 181.41919 26.0238 186.94211 26.0238 C  192.46503 26.0238 196.94211 30.50089 196.94211 36.0238 Z M  186.94211 36.0238  " />
 </g>
 </g>
 <g>
 <g transform="matrix(1.0,0.0,0.0,1.0,180.72261,31.84201)">
 <g fill="rgb(0.0%,0.0%,0.0%)">
 <text style="stroke:none" transform="scale(1,-1) translate(6.2195,0)" text-anchor="middle"  font-size="10"> 
<tspan font-family="rm-lmr" font-size="17">+</tspan></text> 
</g>
 </g>
 </g>
 </g>
 </g>
 <g>
 <g>
 <g transform="matrix(1.0,0.0,0.0,1.0,177.1643,18.19048)">
 <g fill="rgb(0.0%,0.0%,0.0%)">
 <text style="stroke:none" transform="scale(1,-1) translate(3.8889,0)" text-anchor="middle"  font-size="10"> 
<tspan font-family="lmsy" font-size="10">-</tspan></text> 
</g>
 </g>
 </g>
 </g>
 </g>
 </g>
 <g>
 <g stroke-width="1.0pt">
 <path d=" M  10.0 0.0 L  62.25458 0.0  " style="fill:none"/>
 <g>
 <g transform="matrix(1.0,0.0,0.0,1.0,59.40549,0.0)">
 <g>
 <g stroke-dasharray="none" stroke-dashoffset="0.0pt">
 <g stroke-linejoin="miter">
 <path d=" M  6.07602 0.0 L  1.61476 1.68935 L  3.09909 0.0 L  1.61476 -1.68935 Z  " />
 </g>
 </g>
 </g>
  </g>
 </g>
 <g>
 <g>
 <g transform="matrix(1.0,0.0,0.0,1.0,50.05508,6.69406)">
 <g fill="rgb(0.0%,0.0%,0.0%)">
 <text style="stroke:none" transform="scale(1,-1) translate(6.50871,0)" text-anchor="middle"  font-size="10"> 
<tspan font-family="lmmi" font-size="10">&#x03F5;</tspan><tspan baseline-shift="sub"><tspan font-family="lmmi" font-size="7">sf</tspan> </tspan></text> 
</g>
 </g>
 </g>
 </g>
 </g>
 </g>
 <g>
 <g stroke-width="1.0pt">
 <path d=" M  102.0487 0.0 L  125.85054 0.0  " style="fill:none"/>
 <g>
 <g transform="matrix(1.0,0.0,0.0,1.0,123.00145,0.0)">
 <g>
 <g stroke-dasharray="none" stroke-dashoffset="0.0pt">
 <g stroke-linejoin="miter">
 <path d=" M  6.07602 0.0 L  1.61476 1.68935 L  3.09909 0.0 L  1.61476 -1.68935 Z  " />
 </g>
 </g>
 </g>
  </g>
 </g>
 <g>
 <g>
 <g transform="matrix(1.0,0.0,0.0,1.0,120.9439,3.83298)">
 <g fill="rgb(0.0%,0.0%,0.0%)">
 <text style="stroke:none" transform="scale(1,-1) translate(2.86229,0)" text-anchor="middle"  font-size="10"> 
<tspan font-family="lmmi" font-size="10">u</tspan></text> 
</g>
 </g>
 </g>
 </g>
 </g>
 </g>
 <g>
 <g stroke-width="1.0pt">
 <path d=" M  38.45274 0.0 L  38.45274 -23.80183  " style="fill:none"/>
 <g>
 <g transform="matrix(0.0,-1.0,1.0,0.0,38.45274,-20.95274)">
 <g>
 <g stroke-dasharray="none" stroke-dashoffset="0.0pt">
 <g stroke-linejoin="miter">
 <path d=" M  6.07602 0.0 L  1.61476 1.68935 L  3.09909 0.0 L  1.61476 -1.68935 Z  " />
 </g>
 </g>
 </g>
  </g>
 </g>
 <g>
 <path d=" M  40.45274 0.0 C  40.45274 1.10458 39.55733 2.0 38.45274 2.0 C  37.34816 2.0 36.45274 1.10458 36.45274 0.0 C  36.45274 -1.10458 37.34816 -2.0 38.45274 -2.0 C  39.55733 -2.0 40.45274 -1.10458 40.45274 0.0 Z M  38.45274 0.0  " style="stroke:none"/>
 <g>
 <g transform="matrix(1.0,0.0,0.0,1.0,38.45274,0.0)">
 <g fill="rgb(0.0%,0.0%,0.0%)">
 <text style="stroke:none" transform="scale(1,-1) translate(0.0,0)" text-anchor="middle"  font-size="10"> 
</text> 
</g>
 </g>
 </g>
 </g>
 </g>
 </g>
 <g>
 <g stroke-width="1.0pt">
 <path d=" M  38.45274 -57.90547 L  38.45274 -81.7073  " style="fill:none"/>
 <g>
 <g transform="matrix(0.0,-1.0,1.0,0.0,38.45274,-78.85822)">
 <g>
 <g stroke-dasharray="none" stroke-dashoffset="0.0pt">
 <g stroke-linejoin="miter">
 <path d=" M  6.07602 0.0 L  1.61476 1.68935 L  3.09909 0.0 L  1.61476 -1.68935 Z  " />
 </g>
 </g>
 </g>
  </g>
 </g>
 <g>
 <g>
 <g transform="matrix(1.0,0.0,0.0,1.0,24.60698,-80.58081)">
 <g fill="rgb(0.0%,0.0%,0.0%)">
 <text style="stroke:none" transform="scale(1,-1) translate(5.0064,0)" text-anchor="middle"  font-size="10"> 
<tspan font-family="lmmi" font-size="10">y</tspan><tspan baseline-shift="sub"><tspan font-family="lmmi" font-size="7">v</tspan> </tspan></text> 
</g>
 </g>
 </g>
 </g>
 </g>
 </g>
 <g>
 <g stroke-width="1.0pt">
 <path d=" M  130.50145 -96.35822 L  53.10365 -96.35822  " style="fill:none"/>
 <g>
 <g transform="matrix(-1.0,0.0,0.0,-1.0,55.95274,-96.35822)">
 <g>
 <g stroke-dasharray="none" stroke-dashoffset="0.0pt">
 <g stroke-linejoin="miter">
 <path d=" M  6.07602 0.0 L  1.61476 1.68935 L  3.09909 0.0 L  1.61476 -1.68935 Z  " />
 </g>
 </g>
 </g>
  </g>
 </g>
 </g>
 </g>
 <g>
 <g stroke-width="1.0pt">
 <path d=" M  28.45274 -96.35822 L  0.0 -96.35822 L  0.0 -14.65091  " style="fill:none"/>
 <g>
 <g transform="matrix(0.0,1.0,-1.0,0.0,0.0,-17.5)">
 <g>
 <g stroke-dasharray="none" stroke-dashoffset="0.0pt">
 <g stroke-linejoin="miter">
 <path d=" M  6.07602 0.0 L  1.61476 1.68935 L  3.09909 0.0 L  1.61476 -1.68935 Z  " />
 </g>
 </g>
 </g>
  </g>
 </g>
 <g>
 <g>
 <g transform="matrix(1.0,0.0,0.0,1.0,3.83298,-18.13852)">
 <g fill="rgb(0.0%,0.0%,0.0%)">
 <text style="stroke:none" transform="scale(1,-1) translate(7.11,0)" text-anchor="middle"  font-size="10"> 
<tspan font-family="lmmi" font-size="10">y</tspan><tspan baseline-shift="sub"><tspan font-family="lmmi" font-size="7">sf</tspan> </tspan></text> 
</g>
 </g>
 </g>
 </g>
 </g>
 </g>
 <g>
 <g stroke-width="1.0pt">
 <path d=" M  196.94211 36.0238 L  206.51756 36.0238  " style="fill:none"/>
 <g>
 <g transform="matrix(1.0,0.0,0.0,1.0,203.66847,36.0238)">
 <g>
 <g stroke-dasharray="none" stroke-dashoffset="0.0pt">
 <g stroke-linejoin="miter">
 <path d=" M  6.07602 0.0 L  1.61476 1.68935 L  3.09909 0.0 L  1.61476 -1.68935 Z  " />
 </g>
 </g>
 </g>
  </g>
 </g>
 <g>
 </g>
 <g>
 <g>
 <g transform="matrix(1.0,0.0,0.0,1.0,203.27647,39.85678)">
 <g fill="rgb(0.0%,0.0%,0.0%)">
 <text style="stroke:none" transform="scale(1,-1) translate(2.02951,0)" text-anchor="middle"  font-size="10"> 
<tspan font-family="lmmi" font-size="10">&#x03F5;</tspan></text> 
</g>
 </g>
 </g>
 </g>
 </g>
 </g>
 <g>
 <g stroke-width="1.0pt">
 <path d=" M  165.64467 0.0 L  206.51756 0.0  " style="fill:none"/>
 <g>
 <g transform="matrix(1.0,0.0,0.0,1.0,203.66847,0.0)">
 <g>
 <g stroke-dasharray="none" stroke-dashoffset="0.0pt">
 <g stroke-linejoin="miter">
 <path d=" M  6.07602 0.0 L  1.61476 1.68935 L  3.09909 0.0 L  1.61476 -1.68935 Z  " />
 </g>
 </g>
 </g>
  </g>
 </g>
 <g>
 <g>
 <g transform="matrix(1.0,0.0,0.0,1.0,202.0739,5.7774)">
 <g fill="rgb(0.0%,0.0%,0.0%)">
 <text style="stroke:none" transform="scale(1,-1) translate(2.6308,0)" text-anchor="middle"  font-size="10"> 
<tspan font-family="lmmi" font-size="10">y</tspan></text> 
</g>
 </g>
 </g>
 </g>
 </g>
 </g>
 <g>
 <g stroke-width="1.0pt">
 <path d=" M  -14.65091 0.0 L  -38.45274 0.0  " style="fill:none"/>
 <g>
 <g transform="matrix(1.0,0.0,0.0,1.0,-17.5,0.0)">
 <g>
 <g stroke-dasharray="none" stroke-dashoffset="0.0pt">
 <g stroke-linejoin="miter">
 <path d=" M  6.07602 0.0 L  1.61476 1.68935 L  3.09909 0.0 L  1.61476 -1.68935 Z  " />
 </g>
 </g>
 </g>
  </g>
 </g>
 <g>
 <g>
 <g transform="matrix(1.0,0.0,0.0,1.0,-34.61977,3.83298)">
 <g fill="rgb(0.0%,0.0%,0.0%)">
 <text style="stroke:none" transform="scale(1,-1) translate(2.39468,0)" text-anchor="middle"  font-size="10"> 
<tspan font-family="lmmi" font-size="10">r</tspan></text> 
</g>
 </g>
 </g>
 </g>
 </g>
 </g>
 <g>
 <g stroke-width="1.0pt">
 <path d=" M  186.94211 0.0 L  186.94211 -96.35822 L  170.29558 -96.35822  " style="fill:none"/>
 <g>
 <g transform="matrix(-1.0,0.0,0.0,-1.0,173.14467,-96.35822)">
 <g>
 <g stroke-dasharray="none" stroke-dashoffset="0.0pt">
 <g stroke-linejoin="miter">
 <path d=" M  6.07602 0.0 L  1.61476 1.68935 L  3.09909 0.0 L  1.61476 -1.68935 Z  " />
 </g>
 </g>
 </g>
  </g>
 </g>
 <g>
 <path d=" M  188.94211 0.0 C  188.94211 1.10458 188.04669 2.0 186.94211 2.0 C  185.83752 2.0 184.94211 1.10458 184.94211 0.0 C  184.94211 -1.10458 185.83752 -2.0 186.94211 -2.0 C  188.04669 -2.0 188.94211 -1.10458 188.94211 0.0 Z M  186.94211 0.0  " style="stroke:none"/>
 <g>
 <g transform="matrix(1.0,0.0,0.0,1.0,186.94211,0.0)">
 <g fill="rgb(0.0%,0.0%,0.0%)">
 <text style="stroke:none" transform="scale(1,-1) translate(0.0,0)" text-anchor="middle"  font-size="10"> 
</text> 
</g>
 </g>
 </g>
 </g>
 </g>
 </g>
 <g>
 <g stroke-width="1.0pt">
 <path d=" M  186.94211 0.0 L  186.94211 21.3729  " style="fill:none"/>
 <g>
 <g transform="matrix(0.0,1.0,-1.0,0.0,186.94211,18.5238)">
 <g>
 <g stroke-dasharray="none" stroke-dashoffset="0.0pt">
 <g stroke-linejoin="miter">
 <path d=" M  6.07602 0.0 L  1.61476 1.68935 L  3.09909 0.0 L  1.61476 -1.68935 Z  " />
 </g>
 </g>
 </g>
  </g>
 </g>
 </g>
 </g>
 <g>
 <g stroke-width="1.0pt">
 <path d=" M  -24.22636 0.0 L  -24.22636 36.0238 L  172.2912 36.0238  " style="fill:none"/>
 <g>
 <g transform="matrix(1.0,0.0,0.0,1.0,169.44211,36.0238)">
 <g>
 <g stroke-dasharray="none" stroke-dashoffset="0.0pt">
 <g stroke-linejoin="miter">
 <path d=" M  6.07602 0.0 L  1.61476 1.68935 L  3.09909 0.0 L  1.61476 -1.68935 Z  " />
 </g>
 </g>
 </g>
  </g>
 </g>
 <g>
 <path d=" M  -22.22636 0.0 C  -22.22636 1.10458 -23.12178 2.0 -24.22636 2.0 C  -25.33095 2.0 -26.22636 1.10458 -26.22636 0.0 C  -26.22636 -1.10458 -25.33095 -2.0 -24.22636 -2.0 C  -23.12178 -2.0 -22.22636 -1.10458 -22.22636 0.0 Z M  -24.22636 0.0  " style="stroke:none"/>
 <g>
 <g transform="matrix(1.0,0.0,0.0,1.0,-24.22636,0.0)">
 <g fill="rgb(0.0%,0.0%,0.0%)">
 <text style="stroke:none" transform="scale(1,-1) translate(0.0,0)" text-anchor="middle"  font-size="10"> 
</text> 
</g>
 </g>
 </g>
 </g>
 </g>
 </g>
 </g>
 </g>
 </g>
 </g>
 </g>
 
                                                                </g> 
</svg> 
